<svg width="36" height="46" viewBox="0 0 36 46" fill="none" xmlns="http://www.w3.org/2000/svg">
<path d="M35.9412 11.6885C35.6184 10.8073 34.999 10.0483 34.0917 9.72556C33.1059 7.79753 30.2444 8.35587 29.6686 10.3362C27.9935 8.16394 24.8529 9.996 25.1582 12.5173C24.1637 11.9415 22.8463 11.9066 21.7907 12.2555C21.843 11.4442 21.9128 10.6329 21.9914 9.83025C21.9914 9.88259 21.9826 9.94366 21.9739 9.996C22.1135 8.55653 22.3927 7.1345 22.4799 5.69502C22.4625 5.93057 22.4363 6.1574 22.4188 6.38423C22.4886 5.66885 22.5061 4.94475 22.5671 4.22938C22.5497 4.41258 22.5322 4.59579 22.5148 4.77899C23.3872 2.21411 21.529 -1.44129 18.6239 0.591426C15.5879 -1.32788 13.3719 2.52818 15.0906 5.07561C11.6359 5.96547 13.8343 9.82152 15.3436 11.5576C14.7852 11.2523 13.9826 11.1389 13.3458 11.357C12.8049 10.6678 11.7667 10.2926 10.9205 10.4409C10.8507 9.86514 10.5017 9.10614 10.0481 8.73973C8.02407 6.85533 5.17129 8.97528 5.40685 11.4442C5.04916 11.3831 4.67402 11.6361 4.51699 11.9589C1.89103 12.8488 2.40576 16.8008 5.11895 17.1323C5.24981 17.8739 5.71219 18.5107 6.37522 18.9382C4.08078 21.1192 5.65112 24.8706 8.07642 26.2403C7.98918 26.4845 7.92811 26.6678 7.85832 26.8946C7.3087 27.2872 6.7678 27.6885 6.21819 28.0811C3.6533 25.0015 -0.813437 27.9415 2.03062 31.1519C-2.92467 34.0658 2.28362 40.3297 6.02626 35.9676C7.24763 36.9884 9.228 36.3864 9.77762 34.9207C10.3011 35.3221 10.9379 35.6449 11.6097 35.6797C11.7318 37.032 10.5628 38.3842 11.5486 39.6492C11.4614 45.3635 17.0099 47.876 18.2574 41.1061C20.7089 42.1618 22.3578 38.96 20.7089 37.1367C21.1626 37.0669 21.686 36.8313 22.1048 36.4998C22.7678 37.1803 22.6457 38.4191 23.7187 38.7332C29.5988 48.0767 36.6129 42.5282 30.7416 33.6732C33.7863 31.2043 30.9946 27.6449 27.6184 28.2904C30.6893 26.5456 31.9019 21.3548 28.1244 19.7321C30.5846 17.1759 36.7089 16.0156 35.9325 11.671L35.9412 11.6885ZM1.43738 31.7016C1.43738 31.7016 1.46355 31.6754 1.481 31.6667C1.46355 31.6754 1.45483 31.6928 1.43738 31.7016Z" fill="#324B43"/>
<path d="M33.0099 13.1542C32.7743 12.7616 32.312 12.8052 31.9194 12.7616C32.3643 11.7496 32.2945 8.48676 30.8114 10.4846C30.8289 11.514 30.2182 12.4824 30.3316 13.4857C29.3283 14.1574 28.2902 14.7943 27.3043 15.5009C27.4439 14.0964 29.0143 11.6013 27.6882 10.6329C26.397 10.6852 26.9292 12.6918 26.4232 13.5467C26.4407 13.4857 26.4581 13.4333 26.4843 13.3723C26.2662 14.3668 25.4636 15.466 25.9259 16.478C25.4112 16.8445 24.8878 17.2021 24.373 17.5686C26.9292 12.4911 20.4995 10.9557 18.6064 15.4748C18.7983 14.0964 19.0164 12.718 19.1299 11.3308C19.9935 10.7638 20.5868 9.83028 21.1713 8.99276C21.4156 7.28284 19.5835 8.34718 19.2607 9.29811C19.2607 9.15852 19.2694 9.01893 19.2782 8.87935C19.2782 8.92297 19.2782 8.96659 19.2782 9.01021C19.8889 1.33301 18.1353 3.83682 18.2749 9.586C14.9074 3.78448 15.2913 8.80956 18.1266 11.2698C17.9783 12.6307 17.7514 13.9742 17.5682 15.3265C15.2302 10.1094 11.0601 12.8226 12.8049 17.6732C11.9935 16.7747 11.1648 15.8848 10.3447 14.9949C11.4614 13.0931 10.0742 10.8423 9.24546 13.7387C9.01863 13.4769 8.7918 13.2152 8.6086 12.9186C9.47228 11.4006 7.36977 10.3799 7.36977 12.3254C7.31743 12.3777 7.28253 12.4388 7.26508 12.5086C2.66748 12.465 4.22037 14.1574 7.77108 13.6427C8.09387 14.14 8.49518 14.5762 8.86159 15.0298C8.25963 16.0069 6.54098 14.707 5.59878 15.2218C4.27272 16.7572 9.22801 17.0626 9.79507 16.1465C10.4407 16.9142 11.095 17.6732 11.7144 18.4497C3.80162 15.9284 7.39595 26.3275 13.2149 25.6645C11.3043 27.0255 9.27163 28.1858 7.32615 29.4944C4.61296 28.0898 0.905217 29.7997 5.94775 30.393C5.23237 30.8902 4.4821 31.3352 3.79289 31.8761C1.78635 30.8728 -0.28126 33.2458 2.91176 32.9753C2.89431 33.237 2.99028 33.5162 3.20838 33.6645C2.22256 36.4649 5.07534 35.7932 4.72637 33.3853C5.32833 32.984 5.93902 32.6002 6.53226 32.1814C6.4014 34.9644 8.25091 33.0887 7.91939 31.2392C9.13204 30.4104 10.3796 29.6253 11.6097 28.8226C9.38504 31.6231 13.119 35.0604 15.3523 31.9982C15.2651 33.0276 15.1691 34.0571 15.0819 35.0865C14.3491 35.8455 13.4941 36.5435 13.0143 37.5031C12.6479 38.2272 13.7994 38.7768 14.1484 38.044C14.3316 37.6601 14.6108 37.3461 14.9074 37.0582C14.8114 38.1312 14.7329 39.213 14.6893 40.2948C13.3283 40.8095 12.3687 43.8804 14.4537 42.5544C14.6108 42.3188 14.7765 42.0833 14.9597 41.8739C15.0644 41.9524 15.1953 42.0309 15.3261 42.0222C16.9139 44.7528 18.0742 42.1705 16.1637 40.574C16.2596 39.4224 16.3469 38.2796 16.4341 37.128C16.9837 37.791 18.2749 39.3352 18.8071 37.8521C18.7024 36.6569 17.3589 35.9415 16.5824 35.1302C16.6348 34.345 16.7046 33.5685 16.7569 32.7921C18.8158 35.7496 22.9772 34.2141 22.1658 30.5413C22.7242 31.1171 23.2564 31.719 23.7885 32.3123C22.7067 35.4966 24.1026 38.7158 24.8529 33.4726C25.5682 34.2403 26.2923 35.0167 26.9466 35.8368C25.6729 38.6023 26.8856 41.3068 27.8103 36.8401C29.6686 38.454 29.9652 35.7496 28.517 34.7812C29.372 34.0745 31.3 35.3134 31.806 34.0745C31.7624 32.7136 28.4995 33.2283 27.7493 33.8303C27.0688 33.0189 26.3185 32.2512 25.6293 31.4486C26.7634 31.8935 30.5497 31.6056 28.2989 30.0178C27.0513 30.1312 25.638 29.6776 24.469 30.1313C23.7536 29.2937 22.9859 28.5086 22.2356 27.706C27.9412 28.0287 30.6282 18.7376 23.0732 20.0898C24.2858 19.0953 25.5246 18.1182 26.7809 17.1672C29.4243 19.2174 32.6348 17.586 28.1331 16.1552C29.0492 15.4573 30.0088 14.8379 30.9597 14.1923C31.7885 14.803 33.734 14.4366 33.0099 13.128V13.1542ZM19.4265 5.29375V5.2763C19.4265 5.28502 19.4265 5.30247 19.4265 5.31119V5.29375ZM19.1822 17.8041C22.7329 9.6209 26.5366 16.4693 18.4755 21.1193C18.6762 20.0113 18.8507 18.8859 19.1822 17.8041ZM13.7645 15.1781C15.5181 10.2839 17.6817 20.4039 16.6173 22.1051C16.5999 22.0876 16.5824 22.0702 16.565 22.044C14.9772 20.0724 13.2149 17.9001 13.7733 15.1694L13.7645 15.1781ZM11.0601 23.911C3.64458 17.9611 13.1539 18.2927 15.7449 23.7714C14.2269 24.2512 12.5868 24.4257 11.0601 23.911ZM14.8289 30.2185C12.6653 33.7779 11.4265 30.4453 13.4941 28.2905C13.4941 28.2905 13.4941 28.2905 13.4941 28.2992C14.1222 27.1563 15.047 26.3275 16.1113 25.6034C15.9368 27.2087 15.7449 28.8401 14.8289 30.2185ZM20.1942 28.7092C22.6544 36.4649 14.6021 32.8793 17.9434 26.1182C18.6849 26.9731 19.7754 27.6449 20.1942 28.7092ZM23.9717 21.6514C30.0873 21.3461 23.0034 30.5151 18.3185 23.8237C18.4407 23.7278 18.5628 23.6231 18.6849 23.5271C20.3774 23.3352 21.9303 21.4769 23.963 21.6514H23.9717Z" fill="white"/>
<path d="M14.4451 42.5895C14.4451 42.5895 14.454 42.5718 14.4628 42.5718C14.4628 42.5718 14.454 42.5895 14.4451 42.5895Z" fill="white"/>
</svg>
