<svg width="250" height="249" viewBox="0 0 250 249" fill="none" xmlns="http://www.w3.org/2000/svg">
<path fill-rule="evenodd" clip-rule="evenodd" d="M123.779 248.5C217.379 243.7 246.279 211.833 249.279 196C249.391 195.102 248.672 193.146 247.732 190.59L247.732 190.589C247.276 189.35 246.769 187.969 246.279 186.5L214.279 103.5C214.612 88.8333 214.579 58.4 211.779 54C207.612 36.6667 188.679 1.6 146.279 0H98.779C79.8843 1.16667 40.6316 15.4 34.7788 63V103.5L1.27887 190.5C-0.220977 194.5 -0.175575 197 0.278906 198C18.2789 237.6 89.9455 247.5 123.779 248.5ZM86.9018 82.8312C79.2315 83.5335 72.8495 86.9289 68.6776 90.4421C64.9966 93.5419 60.9099 99.391 56.5991 107.527C52.3496 115.547 48.1086 125.345 43.9693 135.917C38.3481 150.273 33.022 165.765 28.1555 179.921C25.8322 186.678 23.6137 193.132 21.5178 199.011C20.6832 201.352 18.109 202.573 15.768 201.739C13.427 200.904 12.2058 198.33 13.0403 195.989C15.0697 190.296 17.2517 183.95 19.5545 177.253C24.4539 163.004 29.9004 147.163 35.5888 132.636C39.7828 121.924 44.1668 111.768 48.6464 103.313C53.0649 94.9741 57.8115 87.8264 62.8804 83.5579C68.2085 79.0711 76.2766 74.7664 86.0812 73.8687C96.0004 72.9605 107.356 75.5751 119 84.4159C122.009 86.7001 126.79 86.8189 131.664 83.3381C136.921 79.5829 146.353 75.2855 156.836 74.3671C167.476 73.4351 179.535 75.9869 189.102 86.4658C192.581 90.276 196.567 97.0479 200.899 106.081C205.287 115.23 210.211 127.086 215.485 141.4L236.468 194.856C237.376 197.169 236.237 199.781 233.923 200.689C231.61 201.597 228.998 200.458 228.09 198.144L207.09 144.644C207.079 144.615 207.067 144.585 207.057 144.556C201.837 130.389 197.016 118.797 192.784 109.973C188.492 101.023 184.977 95.2954 182.456 92.5342C175.224 84.613 166.198 82.5815 157.622 83.3328C148.889 84.0977 140.971 87.7503 136.895 90.6617C129.768 95.7524 120.549 96.8923 113.558 91.5839C103.602 84.0247 94.4577 82.1394 86.9018 82.8312ZM133.779 127.507C134.279 129.007 136.379 132.107 140.779 132.507H177.779C181.779 132.674 189.179 130.507 186.779 120.507C185.279 112.507 177.679 96.6075 159.279 97.0075C151.946 96.8408 136.579 99.4075 133.779 111.007C132.572 116.007 133.408 126.707 133.779 127.507ZM109.248 132.507C113.648 132.107 115.748 129.007 116.248 127.507C116.619 126.707 117.455 116.007 116.248 111.007C113.448 99.4075 98.081 96.8408 90.7477 97.0075C72.3477 96.6075 64.7477 112.507 63.2477 120.507C60.8477 130.507 68.2477 132.674 72.2477 132.507H109.248ZM110.779 169H138.779V152.22C138.603 148.322 133.279 142.05 126.628 142.05C119.977 142.05 110.779 144.898 110.779 152.22V169ZM128.779 178H142.779V214H128.779V178ZM120.779 178H106.779V214H120.779V178ZM184.779 213C184.779 216.866 181.645 220 177.779 220C173.913 220 170.779 216.866 170.779 213C170.779 209.134 173.913 206 177.779 206C181.645 206 184.779 209.134 184.779 213ZM152.279 188L160.779 196.5V214H152.279V188ZM88.7791 196.5L97.2791 188V214H88.7791V196.5ZM70.7791 220C74.6451 220 77.7791 216.866 77.7791 213C77.7791 209.134 74.6451 206 70.7791 206C66.9131 206 63.7791 209.134 63.7791 213C63.7791 216.866 66.9131 220 70.7791 220Z" fill="url(#paint0_linear_62_37)"/>
<defs>
<linearGradient id="paint0_linear_62_37" x1="116.5" y1="-1.54041e-06" x2="125" y2="248" gradientUnits="userSpaceOnUse">
<stop offset="0.420023" stop-color="#0F0F0F"/>
<stop offset="1" stop-color="#0F0F0F" stop-opacity="0.91"/>
</linearGradient>
</defs>
</svg>
