<svg version="1.1" xmlns="http://www.w3.org/2000/svg" viewBox="0 0 1758.8573019845153 520.8569608415885" width="1758.8573019845153" height="520.8569608415885">
  <!-- svg-source:excalidraw -->
  
  <defs>
    <style class="style-fonts">
      @font-face {
        font-family: "Virgil";
        src: url("https://excalidraw.com/Virgil.woff2");
      }
      @font-face {
        font-family: "Cascadia";
        src: url("https://excalidraw.com/Cascadia.woff2");
      }
    </style>
  </defs>
  <rect x="0" y="0" width="1758.8573019845153" height="520.8569608415885" fill="#ffffff"></rect><g stroke-linecap="round" transform="translate(953.4174386887335 198.62686459980478) rotate(0 366.8571254185272 120.57146344866078)"><path d="M7.86 8.16 C7.86 8.16, 7.86 8.16, 7.86 8.16 M7.86 8.16 C7.86 8.16, 7.86 8.16, 7.86 8.16 M3.66 19.09 C7.51 13.32, 11.17 9.9, 18.1 2.48 M3.66 19.09 C7.1 14.37, 10.88 9.93, 18.1 2.48 M2.75 26.24 C9.19 22.21, 13.57 14.39, 24.4 1.33 M2.75 26.24 C9.35 18.94, 16.4 9.55, 24.4 1.33 M1.83 33.39 C10.49 23.6, 18.33 14.33, 30.7 0.18 M1.83 33.39 C12.22 22.27, 22.8 9.47, 30.7 0.18 M1.57 39.79 C11.59 27.54, 23.98 11.19, 34.37 2.05 M1.57 39.79 C8.1 32.37, 15.46 22.36, 34.37 2.05 M1.96 45.43 C10.39 34.8, 22.35 24.95, 39.36 2.41 M1.96 45.43 C14.23 30.94, 27.06 15.22, 39.36 2.41 M1.7 51.83 C15.58 37.34, 28.96 22.23, 45 2.02 M1.7 51.83 C12.26 39.34, 24.82 25.67, 45 2.02 M2.1 57.47 C14.6 43.5, 23.16 31.76, 49.99 2.38 M2.1 57.47 C15.27 43.46, 28.56 27.68, 49.99 2.38 M1.83 63.87 C14.52 48.55, 26.53 34.05, 55.63 1.98 M1.83 63.87 C21.9 41.46, 41.8 18.48, 55.63 1.98 M1.57 70.27 C21.74 49.04, 40.23 27.1, 60.62 2.34 M1.57 70.27 C14.66 55.66, 26.27 41.45, 60.62 2.34 M1.97 75.91 C16.54 57.16, 30.77 38.51, 66.26 1.95 M1.97 75.91 C18.63 56.76, 35.56 38.28, 66.26 1.95 M1.71 82.31 C23.78 59.29, 46.85 34.08, 71.25 2.31 M1.71 82.31 C20.83 60.76, 39.43 38.4, 71.25 2.31 M2.1 87.95 C21.24 67.41, 36.83 43.6, 76.89 1.91 M2.1 87.95 C27.67 59.05, 54.65 28.39, 76.89 1.91 M1.84 94.35 C31.22 61.17, 58.15 32.54, 81.88 2.27 M1.84 94.35 C28.94 65.33, 54.36 33.45, 81.88 2.27 M2.23 99.99 C26.5 71.34, 51.75 42.47, 87.52 1.88 M2.23 99.99 C27.58 70.15, 51.94 42.6, 87.52 1.88 M1.97 106.39 C20.21 82.11, 37.47 63.91, 92.51 2.24 M1.97 106.39 C29.66 72.45, 59.04 40.03, 92.51 2.24 M1.71 112.79 C21.58 91.02, 45.12 65.52, 98.15 1.85 M1.71 112.79 C23.74 87.54, 45.14 63.29, 98.15 1.85 M2.1 118.43 C28.64 83.68, 58.17 52.11, 103.14 2.21 M2.1 118.43 C35.03 81.22, 66.26 44.11, 103.14 2.21 M1.84 124.83 C25.09 98.91, 46 71.35, 108.78 1.81 M1.84 124.83 C34.02 87.71, 67.55 49.78, 108.78 1.81 M2.24 130.47 C27.79 101.27, 51.97 67.79, 113.77 2.17 M2.24 130.47 C33.26 95.21, 63.27 59.75, 113.77 2.17 M1.98 136.87 C29.36 101.46, 62.46 69.3, 119.41 1.78 M1.98 136.87 C47.33 83.9, 94.62 31.13, 119.41 1.78 M1.72 143.27 C32.51 109.86, 59.5 75.74, 124.4 2.14 M1.72 143.27 C37.82 102.05, 72.19 60.82, 124.4 2.14 M2.11 148.91 C33.76 112.02, 65.35 77.62, 130.04 1.74 M2.11 148.91 C47.21 97.98, 91.89 46.32, 130.04 1.74 M1.85 155.31 C26.92 124.85, 53.83 95.19, 135.03 2.1 M1.85 155.31 C45.61 104, 89.85 54.71, 135.03 2.1 M2.24 160.95 C45.87 109.41, 90.68 58.96, 140.67 1.71 M2.24 160.95 C53.21 102.42, 104.51 43.72, 140.67 1.71 M1.98 167.35 C50.99 110.43, 102.58 52.67, 145.66 2.07 M1.98 167.35 C43.09 118.07, 86.29 69.47, 145.66 2.07 M2.38 172.99 C48.85 119.61, 92.55 67.09, 150.65 2.43 M2.38 172.99 C36.13 134.21, 68.36 96.67, 150.65 2.43 M2.11 179.39 C61.9 110.74, 119.12 41.41, 156.29 2.03 M2.11 179.39 C59.08 113.1, 118.16 44.97, 156.29 2.03 M1.85 185.79 C42.61 135.92, 87.32 86.78, 161.28 2.39 M1.85 185.79 C67.51 113.25, 130.67 38.92, 161.28 2.39 M2.25 191.43 C34.36 152.55, 68.93 113.36, 166.92 2 M2.25 191.43 C51.17 131.94, 102.15 74.86, 166.92 2 M1.99 197.83 C65.9 122.32, 130.04 50.18, 171.91 2.36 M1.99 197.83 C38.41 158.11, 72.27 117.84, 171.91 2.36 M2.38 203.47 C61.16 132.9, 122.69 63.17, 177.55 1.96 M2.38 203.47 C50.17 149.86, 99.23 95.42, 177.55 1.96 M2.12 209.87 C41.64 164.09, 82.23 120.02, 182.54 2.32 M2.12 209.87 C48.2 157.89, 93.07 106, 182.54 2.32 M1.2 217.02 C60.8 147.38, 121.08 78.68, 188.18 1.93 M1.2 217.02 C41.7 168.99, 84.17 119.91, 188.18 1.93 M2.25 221.91 C62.92 151.59, 122.57 83.6, 193.17 2.29 M2.25 221.91 C67.31 145.04, 132.26 70.19, 193.17 2.29 M3.96 226.04 C63.13 157.05, 123.43 89.32, 198.81 1.9 M3.96 226.04 C77.36 142.17, 149.63 57.91, 198.81 1.9 M5.67 230.18 C78.6 144.38, 153.48 59.48, 203.8 2.26 M5.67 230.18 C46.12 180.29, 88.56 131.56, 203.8 2.26 M8.68 232.8 C60.9 175.88, 110.31 115.95, 209.44 1.86 M8.68 232.8 C64.18 167.07, 120.45 103.57, 209.44 1.86 M11.7 235.43 C64.14 174.7, 116.05 115.25, 214.43 2.22 M11.7 235.43 C89.11 146.21, 167.93 56.03, 214.43 2.22 M14.72 238.05 C88.87 149.91, 165.51 62.58, 220.07 1.83 M14.72 238.05 C91 151.15, 165.44 65.06, 220.07 1.83 M18.4 239.92 C58.68 190.92, 102.19 140.72, 225.06 2.19 M18.4 239.92 C81.25 165.09, 144.77 92.22, 225.06 2.19 M23.38 240.28 C71.65 181.15, 123.86 124.3, 230.7 1.79 M23.38 240.28 C67.68 189.57, 111.95 139.19, 230.7 1.79 M27.72 241.39 C70.98 190.88, 116.43 140.52, 235.69 2.15 M27.72 241.39 C73.96 189.63, 120.16 136.33, 235.69 2.15 M32.7 241.75 C99.34 165.02, 166.55 90.68, 241.33 1.76 M32.7 241.75 C85.21 180.69, 138.14 118.2, 241.33 1.76 M37.69 242.11 C92.51 181.71, 146.23 119.3, 246.32 2.12 M37.69 242.11 C94.75 174.97, 153.42 107.15, 246.32 2.12 M43.33 241.72 C88.09 190.26, 132.91 138.43, 251.96 1.72 M43.33 241.72 C105.36 168.95, 167.4 97.36, 251.96 1.72 M48.32 242.08 C104.3 178.58, 158.41 116.84, 256.95 2.08 M48.32 242.08 C99.87 182.07, 151.84 122.45, 256.95 2.08 M53.96 241.69 C96.8 191.59, 140.8 141.97, 262.59 1.69 M53.96 241.69 C134.02 147.4, 215.61 54.23, 262.59 1.69 M58.95 242.05 C131.89 159.77, 206.19 75.97, 267.58 2.05 M58.95 242.05 C142.85 145.53, 224.85 51.47, 267.58 2.05 M64.59 241.65 C138.37 159.32, 212.23 77.29, 272.56 2.41 M64.59 241.65 C135.36 159.49, 206.24 77.91, 272.56 2.41 M69.58 242.01 C147.36 154.7, 223.9 65.02, 278.21 2.01 M69.58 242.01 C151.98 145.91, 236.09 49.96, 278.21 2.01 M75.22 241.62 C147.22 154.77, 224.09 71.17, 283.19 2.37 M75.22 241.62 C122.98 186.82, 169.93 132.56, 283.19 2.37 M80.21 241.98 C157.68 149.74, 239.4 57.84, 288.84 1.98 M80.21 241.98 C131.48 183.27, 182.7 124.54, 288.84 1.98 M85.85 241.58 C151.86 167.16, 216.97 88.77, 293.82 2.34 M85.85 241.58 C142.6 179, 197.54 114.6, 293.82 2.34 M90.84 241.94 C171.1 151.99, 246.98 61.17, 299.47 1.94 M90.84 241.94 C160.31 161.13, 228.99 82.87, 299.47 1.94 M96.48 241.55 C175.6 150.12, 256.61 58.28, 304.45 2.3 M96.48 241.55 C169.27 157.96, 241.53 74.02, 304.45 2.3 M101.47 241.91 C170.43 159.46, 240.9 80.49, 310.1 1.91 M101.47 241.91 C175.14 158.58, 248.72 73.93, 310.1 1.91 M107.11 241.51 C162 178.58, 215.71 116.47, 315.08 2.27 M107.11 241.51 C171.92 166.34, 238.4 91.22, 315.08 2.27 M112.1 241.87 C189.94 151.19, 270.91 60.81, 320.73 1.88 M112.1 241.87 C159.98 188.83, 206.71 136.25, 320.73 1.88 M117.74 241.48 C191.52 157.31, 264.46 73.91, 325.71 2.24 M117.74 241.48 C173.64 177.13, 229.95 112.14, 325.71 2.24 M122.73 241.84 C174.14 184.46, 224.88 126.41, 331.36 1.84 M122.73 241.84 C196.82 156.88, 270.64 72.25, 331.36 1.84 M128.37 241.44 C210.88 145.88, 295.75 50.84, 336.34 2.2 M128.37 241.44 C185.73 176.96, 242.04 111.69, 336.34 2.2 M133.36 241.8 C213.24 151.01, 290.91 61.78, 341.99 1.81 M133.36 241.8 C214.23 150.51, 294.06 58.35, 341.99 1.81 M139 241.41 C186.24 185.72, 232.34 134.02, 346.97 2.17 M139 241.41 C187.11 184.42, 234.66 129.04, 346.97 2.17 M143.99 241.77 C191.5 184.88, 242.64 127.48, 352.62 1.77 M143.99 241.77 C190.56 185.93, 237.83 132.19, 352.62 1.77 M148.98 242.13 C194.56 189.6, 239.31 137.93, 357.6 2.13 M148.98 242.13 C198.41 185.61, 245.66 131.15, 357.6 2.13 M154.62 241.74 C199.74 189.31, 245.24 136.67, 363.25 1.74 M154.62 241.74 C203.61 184.09, 253.34 126.69, 363.25 1.74 M159.61 242.1 C206.78 188.16, 255.27 134.87, 368.23 2.1 M159.61 242.1 C242.03 146.18, 322.51 52.17, 368.23 2.1 M165.25 241.7 C231.7 165.6, 297.5 90.33, 373.88 1.7 M165.25 241.7 C218.85 179.09, 273.1 116.92, 373.88 1.7 M170.24 242.06 C230.54 174.28, 290.1 105.44, 378.86 2.06 M170.24 242.06 C214.3 190.83, 258.96 139.98, 378.86 2.06 M175.88 241.67 C225.34 184.07, 276.94 124.41, 383.85 2.42 M175.88 241.67 C247.16 159.72, 319.91 77.05, 383.85 2.42 M180.87 242.03 C234.33 178.96, 291.57 115.26, 389.49 2.03 M180.87 242.03 C229.86 185.2, 279.6 127.92, 389.49 2.03 M186.51 241.63 C258.73 161.36, 329.66 78.91, 394.48 2.39 M186.51 241.63 C242.21 177.26, 298.04 114.09, 394.48 2.39 M191.5 241.99 C239.63 184.74, 288.99 127.94, 400.12 1.99 M191.5 241.99 C271.2 151.95, 348.82 61.57, 400.12 1.99 M197.14 241.6 C251.46 178.95, 305.54 117.88, 405.11 2.35 M197.14 241.6 C276.54 148.48, 356.94 55.37, 405.11 2.35 M202.13 241.96 C267.71 167.83, 333.23 91.01, 410.75 1.96 M202.13 241.96 C280.69 152.18, 360.2 60.09, 410.75 1.96 M207.77 241.56 C262.67 176.75, 319.03 110.98, 415.74 2.32 M207.77 241.56 C289.23 146.07, 370.52 53.41, 415.74 2.32 M212.76 241.92 C294.77 146.35, 377.96 50.43, 421.38 1.93 M212.76 241.92 C293.75 149.47, 373.94 56.1, 421.38 1.93 M218.4 241.53 C295.47 154.82, 369.03 70.48, 426.37 2.29 M218.4 241.53 C295.21 155.11, 370.92 66.77, 426.37 2.29 M223.39 241.89 C273.62 182.52, 322.3 126.1, 432.01 1.89 M223.39 241.89 C298.67 154.38, 373.83 67.2, 432.01 1.89 M229.03 241.49 C298.86 162.92, 364.43 85.86, 437 2.25 M229.03 241.49 C292.37 169.03, 357.22 95.29, 437 2.25 M234.02 241.85 C307.71 158.2, 383.75 71.26, 442.64 1.86 M234.02 241.85 C286.59 183.5, 339.42 123.96, 442.64 1.86 M239.66 241.46 C301.87 170.36, 362.25 102.27, 447.63 2.22 M239.66 241.46 C285.65 189.33, 331.89 136.27, 447.63 2.22 M244.65 241.82 C317.51 156.77, 393.09 73.72, 453.27 1.82 M244.65 241.82 C295.37 185.26, 344.13 127.99, 453.27 1.82 M250.29 241.42 C334 145.57, 417.16 52.1, 458.26 2.18 M250.29 241.42 C291.6 191.17, 334.61 141.5, 458.26 2.18 M255.28 241.79 C337.45 151.95, 415.52 59.33, 463.9 1.79 M255.28 241.79 C314.14 173.84, 373.69 104.4, 463.9 1.79 M260.92 241.39 C323.16 170.54, 386.83 100.34, 468.89 2.15 M260.92 241.39 C343.06 149.08, 424.74 54.35, 468.89 2.15 M265.91 241.75 C319.98 178.2, 375.34 114.94, 474.53 1.75 M265.91 241.75 C348 146.19, 431.01 49.69, 474.53 1.75 M270.9 242.11 C323.76 177.86, 380.36 115.43, 479.52 2.11 M270.9 242.11 C314.52 192.82, 356.99 144.08, 479.52 2.11 M276.54 241.72 C317.91 193.78, 361.89 144.07, 485.17 1.72 M276.54 241.72 C347.42 159.16, 419.76 75.19, 485.17 1.72 M281.53 242.08 C339.52 172.72, 399.04 101.71, 490.15 2.08 M281.53 242.08 C340.34 174.42, 397.15 109.15, 490.15 2.08 M287.17 241.68 C339.84 181.12, 394.72 118.29, 495.8 1.68 M287.17 241.68 C360.04 157.89, 433.89 73.12, 495.8 1.68 M292.16 242.04 C368.73 152.86, 447.67 63.33, 500.78 2.04 M292.16 242.04 C363.92 160.49, 436.54 76.71, 500.78 2.04 M297.8 241.65 C351.42 179.31, 403.73 119.75, 505.77 2.4 M297.8 241.65 C341.79 192.53, 383.55 143.81, 505.77 2.4 M302.79 242.01 C356.16 183.74, 406.44 124.05, 511.41 2.01 M302.79 242.01 C380.33 154.13, 455.99 66.13, 511.41 2.01 M308.43 241.61 C367.57 175.13, 426.48 108.69, 516.4 2.37 M308.43 241.61 C381.05 160.55, 452.1 79.17, 516.4 2.37 M313.42 241.97 C362.65 180.9, 413.72 124.39, 522.04 1.98 M313.42 241.97 C397.77 146.31, 480.73 51.38, 522.04 1.98 M319.06 241.58 C362.26 192.08, 407.1 141.92, 527.03 2.34 M319.06 241.58 C392.45 154.55, 468 66.74, 527.03 2.34 M324.05 241.94 C372.51 187.85, 421.46 132.52, 532.67 1.94 M324.05 241.94 C386.32 168.25, 449.72 95.23, 532.67 1.94 M329.69 241.54 C406.07 151.25, 480.11 65.4, 537.66 2.3 M329.69 241.54 C399.24 164.46, 466.94 85.47, 537.66 2.3 M334.68 241.9 C392.54 176.48, 451.53 107.63, 543.3 1.91 M334.68 241.9 C388.37 181.06, 442.97 120.4, 543.3 1.91 M340.32 241.51 C393.66 182.12, 444.31 122.14, 548.29 2.27 M340.32 241.51 C392.1 183.1, 442.21 124.16, 548.29 2.27 M345.31 241.87 C423.48 151, 501.78 61.8, 553.93 1.87 M345.31 241.87 C396.11 185.74, 446.37 128.18, 553.93 1.87 M350.95 241.47 C394.83 190.41, 442.03 138.75, 558.92 2.23 M350.95 241.47 C429.93 147.12, 510.71 53.36, 558.92 2.23 M355.94 241.83 C424.83 159.9, 498.39 76.33, 564.56 1.84 M355.94 241.83 C426.93 161.3, 498.06 80.13, 564.56 1.84 M361.58 241.44 C404.14 194.45, 446.77 144.57, 569.55 2.2 M361.58 241.44 C444.92 148.52, 526.62 53.7, 569.55 2.2 M366.57 241.8 C430.69 170.8, 490.73 98.65, 575.19 1.8 M366.57 241.8 C419 182.15, 471.26 122.71, 575.19 1.8 M372.21 241.41 C418.09 191.6, 461.4 141.09, 580.18 2.16 M372.21 241.41 C445.07 159.19, 516.86 75.8, 580.18 2.16 M377.2 241.77 C455.92 150.64, 537.16 55.29, 585.82 1.77 M377.2 241.77 C458.32 150.61, 537.86 58.72, 585.82 1.77 M382.18 242.13 C465.47 146.23, 546.89 51.57, 590.81 2.13 M382.18 242.13 C442.72 172.17, 503.08 100.97, 590.81 2.13 M387.83 241.73 C445.01 177.22, 501.7 108.59, 596.45 1.73 M387.83 241.73 C458.63 159, 531.16 74.89, 596.45 1.73 M392.81 242.09 C478.21 146.54, 560.74 49.34, 601.44 2.09 M392.81 242.09 C463.93 160.19, 533.89 79.45, 601.44 2.09 M398.46 241.7 C448.98 186.76, 499.88 129.13, 607.08 1.7 M398.46 241.7 C451.34 178.59, 507.04 114.72, 607.08 1.7 M403.44 242.06 C449.35 189.42, 495.01 136.99, 612.07 2.06 M403.44 242.06 C472.89 160.31, 542.27 80.02, 612.07 2.06 M409.09 241.66 C467.51 178.38, 521.89 113.52, 617.06 2.42 M409.09 241.66 C463.72 180.24, 517.61 117.85, 617.06 2.42 M414.07 242.02 C478.17 168.28, 544.68 91.09, 622.7 2.02 M414.07 242.02 C458.62 190.46, 503.86 138.39, 622.7 2.02 M419.72 241.63 C501.23 147.37, 581.93 56.22, 627.69 2.38 M419.72 241.63 C496.28 151.31, 574.03 63.09, 627.69 2.38 M424.7 241.99 C490.35 165.8, 559.47 86.51, 633.33 1.99 M424.7 241.99 C478.18 180.11, 530.28 119.79, 633.33 1.99 M430.35 241.59 C496.53 166.59, 563.12 89.67, 638.32 2.35 M430.35 241.59 C478.8 183.68, 529.39 126.37, 638.32 2.35 M435.33 241.95 C511.12 155.99, 585.39 72.43, 643.96 1.96 M435.33 241.95 C514.09 150.55, 591.81 61.61, 643.96 1.96 M440.98 241.56 C485.85 192.3, 529.28 141.75, 648.95 2.32 M440.98 241.56 C486.63 187.17, 532.94 133.09, 648.95 2.32 M445.96 241.92 C503.18 175.21, 559.52 111.25, 654.59 1.92 M445.96 241.92 C505.78 174.26, 565.48 106.03, 654.59 1.92 M451.61 241.52 C519.81 164.86, 588.88 85.78, 659.58 2.28 M451.61 241.52 C509.96 175.73, 566.12 109.06, 659.58 2.28 M456.59 241.88 C500.58 193.58, 542.44 144.25, 665.22 1.89 M456.59 241.88 C524.25 162.5, 593.24 84.19, 665.22 1.89 M462.24 241.49 C534.82 156.37, 608.66 72.63, 670.21 2.25 M462.24 241.49 C518.58 177.19, 573.96 114.27, 670.21 2.25 M467.22 241.85 C523.87 178.35, 579.38 112.71, 675.85 1.85 M467.22 241.85 C511.17 191.21, 555.47 140.07, 675.85 1.85 M472.87 241.46 C530.98 172.14, 589.93 105.54, 680.84 2.21 M472.87 241.46 C529.48 176.87, 585.24 113.33, 680.84 2.21 M477.85 241.82 C524.6 188.72, 570.74 133.3, 686.48 1.82 M477.85 241.82 C541.72 169.26, 606.51 96.58, 686.48 1.82 M483.5 241.42 C552.14 160.75, 625.03 79.77, 691.47 2.18 M483.5 241.42 C539.25 178.47, 593.73 115.12, 691.47 2.18 M488.48 241.78 C532.69 193.92, 576.88 142.46, 697.11 1.78 M488.48 241.78 C559.2 162.79, 628.14 83.43, 697.11 1.78 M494.13 241.39 C546.95 180.84, 598.88 119.5, 702.75 1.39 M494.13 241.39 C544.07 182.15, 594.93 124.02, 702.75 1.39 M499.11 241.75 C547.41 186.76, 593.42 132.81, 707.74 1.75 M499.11 241.75 C556.18 175.79, 612.56 110.2, 707.74 1.75 M504.1 242.11 C581.46 154.11, 657.96 65.48, 712.73 2.11 M504.1 242.11 C570.32 167.11, 635.48 92.16, 712.73 2.11 M509.74 241.71 C561.52 180.72, 612.87 120.95, 717.06 3.22 M509.74 241.71 C564.65 177.95, 621.52 114.32, 717.06 3.22 M514.73 242.07 C587.17 159.12, 662.34 71.69, 720.73 5.09 M514.73 242.07 C591.51 155.38, 667.55 67.81, 720.73 5.09 M520.37 241.68 C589.14 165.68, 653.6 90.53, 723.75 7.72 M520.37 241.68 C584.95 168.47, 649.93 94.02, 723.75 7.72 M525.36 242.04 C589.76 169.65, 651.26 100.39, 727.43 9.59 M525.36 242.04 C572.5 190.13, 617.92 136.86, 727.43 9.59 M531 241.64 C579.15 185.38, 627.49 127.19, 729.79 12.97 M531 241.64 C603.48 154.69, 678.2 70.07, 729.79 12.97 M535.99 242 C578.7 191.41, 620.72 144.05, 731.5 17.1 M535.99 242 C596.54 170.87, 657.91 99.78, 731.5 17.1 M541.63 241.61 C597.6 177.12, 656.1 112.46, 732.55 21.99 M541.63 241.61 C590.32 187.25, 638.57 131.2, 732.55 21.99 M546.62 241.97 C603.8 176.66, 662.86 107.99, 734.91 25.37 M546.62 241.97 C612.7 166.38, 678.95 88.78, 734.91 25.37 M552.26 241.57 C608.35 177.4, 663.4 114.74, 734.65 31.76 M552.26 241.57 C611.33 174.68, 670.91 107.33, 734.65 31.76 M557.25 241.93 C611.93 179.68, 667.4 113.54, 734.39 38.16 M557.25 241.93 C608.88 182.44, 661.07 124.27, 734.39 38.16 M562.89 241.54 C628.24 162.91, 696.97 85.08, 734.78 43.81 M562.89 241.54 C599.33 199.24, 636.81 156.88, 734.78 43.81 M567.88 241.9 C634.53 166.66, 698.96 91.6, 734.52 50.2 M567.88 241.9 C626.47 171.39, 687.66 102.51, 734.52 50.2 M573.52 241.5 C609.46 197.68, 644.31 156.21, 734.92 55.85 M573.52 241.5 C623.01 184.16, 672.06 127.62, 734.92 55.85 M578.51 241.87 C609.48 203.26, 641.73 165.49, 734.65 62.24 M578.51 241.87 C614.96 201.15, 648.98 161.36, 734.65 62.24 M584.15 241.47 C637.52 181.62, 688.26 122.69, 735.05 67.89 M584.15 241.47 C623.45 195.42, 661.5 151.37, 735.05 67.89 M589.14 241.83 C625.71 199.75, 663.16 157.32, 734.79 74.29 M589.14 241.83 C622.97 200.52, 657.84 160.35, 734.79 74.29 M594.78 241.44 C632.96 198.82, 668.41 157.04, 734.53 80.68 M594.78 241.44 C630.97 200.17, 666.18 158.4, 734.53 80.68 M599.77 241.8 C643.68 191.95, 688.44 138.6, 734.92 86.33 M599.77 241.8 C648.94 184.33, 700.92 124.67, 734.92 86.33 M605.42 241.4 C652.34 186.49, 696.23 135.54, 734.66 92.72 M605.42 241.4 C653.57 184.28, 702.05 127.95, 734.66 92.72 M610.4 241.76 C641.47 203.14, 677.08 164.39, 735.05 98.37 M610.4 241.76 C647.74 195.91, 686.35 151.57, 735.05 98.37 M615.39 242.12 C657.9 189.65, 704.88 140.75, 734.79 104.76 M615.39 242.12 C641.12 210.11, 668.79 178.99, 734.79 104.76 M621.03 241.73 C644.38 214.08, 666.98 187.28, 734.53 111.16 M621.03 241.73 C658.34 198.83, 696.87 155.65, 734.53 111.16 M626.02 242.09 C658.92 202.02, 692.23 163.94, 734.92 116.81 M626.02 242.09 C658.83 205.99, 689.92 171.02, 734.92 116.81 M631.66 241.69 C659.52 206.17, 688.82 173.14, 734.66 123.2 M631.66 241.69 C652.42 215.21, 674.81 190.58, 734.66 123.2 M636.65 242.05 C671.15 203.27, 706.57 163.96, 735.06 128.85 M636.65 242.05 C675.18 198.58, 714.58 156.1, 735.06 128.85 M642.29 241.66 C679.54 197.01, 716.68 155.42, 734.8 135.24 M642.29 241.66 C678.15 202.98, 711.69 161.4, 734.8 135.24 M647.28 242.02 C675.85 209.2, 707.75 171.35, 735.19 140.89 M647.28 242.02 C665.38 218.43, 685.41 196.25, 735.19 140.89 M652.92 241.62 C673.95 221.02, 690.92 200.33, 734.93 147.28 M652.92 241.62 C680.3 210.95, 706.4 180.8, 734.93 147.28 M657.91 241.98 C682.09 216.53, 705.67 188.39, 734.67 153.68 M657.91 241.98 C676.05 220.74, 694.41 201.42, 734.67 153.68 M663.55 241.59 C690.02 211.51, 719.28 179.61, 735.06 159.33 M663.55 241.59 C689.43 212.52, 714.57 183.32, 735.06 159.33 M668.54 241.95 C688.41 219.6, 707.28 194.74, 734.8 165.72 M668.54 241.95 C691.68 217.61, 713.21 190.99, 734.8 165.72 M674.18 241.55 C692.44 221.45, 708.16 202.07, 735.2 171.37 M674.18 241.55 C694.78 217.91, 713.71 195.62, 735.2 171.37 M679.17 241.91 C701.65 216.85, 725 189.84, 734.93 177.76 M679.17 241.91 C702.04 215.87, 722.44 191.09, 734.93 177.76 M684.81 241.52 C699.25 226.69, 714.81 207.34, 735.33 183.41 M684.81 241.52 C696.45 227.84, 708.6 213.73, 735.33 183.41 M689.8 241.88 C701.83 228.47, 714.63 211.23, 735.07 189.81 M689.8 241.88 C704.78 225.44, 719.58 208.79, 735.07 189.81 M695.44 241.49 C708 225.27, 721.04 208.65, 734.81 196.2 M695.44 241.49 C705.52 231.48, 714.36 220.37, 734.81 196.2 M700.43 241.85 C708.76 230.88, 718.51 221.16, 735.2 201.85 M700.43 241.85 C708.4 233.75, 714.15 224.09, 735.2 201.85 M704.1 243.72 C712.85 232.51, 724.59 221.14, 734.28 209 M704.1 243.72 C712.79 233.95, 719.63 224.01, 734.28 209 M710.4 242.57 C717.75 233.75, 721.06 227.58, 732.71 216.91 M710.4 242.57 C718.78 231.52, 727.69 221.34, 732.71 216.91 M717.36 240.66 C721.53 235.29, 725.63 229.83, 732.45 223.3 M717.36 240.66 C721.27 236.84, 723.76 233.4, 732.45 223.3 M12.74 236.85 C12.74 236.85, 12.74 236.85, 12.74 236.85 M12.74 236.85 C12.74 236.85, 12.74 236.85, 12.74 236.85 M19.14 237.11 C13.6 233.81, 9.68 230.3, 6.31 225.96 M19.14 237.11 C15.8 234.57, 10.93 230.6, 6.31 225.96 M27.04 238.68 C18.62 230.4, 9.9 224.67, 1.38 216.38 M27.04 238.68 C20.44 232.15, 12.93 226.11, 1.38 216.38 M33.44 238.95 C25.49 229.47, 13.09 224.49, 0.99 210.74 M33.44 238.95 C23.97 230.18, 13.73 221.87, 0.99 210.74 M39.84 239.21 C28.84 230.91, 16.99 218.69, 1.35 205.75 M39.84 239.21 C29.54 231.19, 19.61 221.08, 1.35 205.75 M46.24 239.47 C35.98 230.84, 29.25 224.56, 0.95 200.11 M46.24 239.47 C37.61 230.89, 27.5 222.74, 0.95 200.11 M51.88 239.07 C33.05 224.97, 18.34 206.65, 1.31 195.12 M51.88 239.07 C38.19 226.24, 25.26 216.26, 1.31 195.12 M58.28 239.34 C41.9 222.46, 21.99 208.23, 0.92 189.47 M58.28 239.34 C40.41 223.93, 21.24 208.15, 0.92 189.47 M63.92 238.94 C43.8 223.23, 28.86 209.92, 1.28 184.49 M63.92 238.94 C51.21 226.95, 35.48 213.53, 1.28 184.49 M70.32 239.2 C51.93 222.11, 37.73 207.64, 0.88 178.84 M70.32 239.2 C49.14 220.91, 28.54 204.08, 0.88 178.84 M76.72 239.46 C51.12 217.43, 23.43 190.66, 1.24 173.86 M76.72 239.46 C51.89 218.45, 29.03 198.04, 1.24 173.86 M82.36 239.07 C53.19 214.85, 25.7 189.11, 0.85 168.21 M82.36 239.07 C52.56 213.28, 23.11 186.95, 0.85 168.21 M88.76 239.33 C54.27 209.96, 23.34 181.47, 1.21 163.23 M88.76 239.33 C62.95 217.66, 38.78 194.46, 1.21 163.23 M94.4 238.94 C75.04 221.26, 53.91 202.49, 0.82 157.58 M94.4 238.94 C64.36 213.25, 33.06 186.89, 0.82 157.58 M100.8 239.2 C77.23 218.37, 51.13 196.41, 1.18 152.6 M100.8 239.2 C68.04 209.5, 33.4 179.73, 1.18 152.6 M107.19 239.46 C78.29 213.11, 48.88 190.82, 0.78 146.95 M107.19 239.46 C75.96 213.39, 45.19 185.39, 0.78 146.95 M112.84 239.06 C69.78 201.25, 24.5 165.46, 1.14 141.97 M112.84 239.06 C87.66 216.07, 60.74 194.06, 1.14 141.97 M119.24 239.33 C83.99 209.25, 52.52 181.48, 0.75 136.32 M119.24 239.33 C70.94 197.85, 25 157.86, 0.75 136.32 M124.88 238.93 C81.24 200.87, 41.27 164.67, 1.11 131.34 M124.88 238.93 C77.04 197.68, 28.16 154.81, 1.11 131.34 M131.28 239.19 C104.51 217.33, 76.47 193.24, 0.71 125.69 M131.28 239.19 C97.41 209.63, 62.5 178.04, 0.71 125.69 M137.67 239.45 C83.77 192.5, 31.78 145.37, 1.07 120.71 M137.67 239.45 C86.98 195.3, 37.08 151.17, 1.07 120.71 M143.32 239.06 C98.28 199.38, 49.97 158.45, 0.68 115.06 M143.32 239.06 C93.4 194.81, 42.91 151.73, 0.68 115.06 M149.71 239.32 C104.25 201.53, 62 163.31, 1.04 110.08 M149.71 239.32 C118.18 211.23, 87.12 185.02, 1.04 110.08 M155.36 238.93 C106.39 194.87, 52.69 150.38, 0.64 104.43 M155.36 238.93 C96.06 187.56, 35.03 136.76, 0.64 104.43 M161.76 239.19 C102.22 187.65, 41.63 135.92, 1 99.45 M161.76 239.19 C113.67 194.6, 62.84 152.25, 1 99.45 M168.15 239.45 C125.58 202.06, 79.61 164.58, 0.61 93.8 M168.15 239.45 C110.45 189.72, 54.62 140.93, 0.61 93.8 M173.8 239.05 C139.19 205.62, 104.14 177.21, 0.97 88.82 M173.8 239.05 C120.57 194.33, 68.42 147.98, 0.97 88.82 M180.19 239.32 C122.38 184.63, 59.86 132.9, 0.57 83.17 M180.19 239.32 C131.8 198.49, 84.91 157.8, 0.57 83.17 M185.84 238.92 C118.97 183.29, 54.18 123.23, 0.93 78.19 M185.84 238.92 C146.94 205.67, 107.83 171.58, 0.93 78.19 M192.24 239.18 C132.53 188.56, 71.1 136.64, 0.54 72.54 M192.24 239.18 C148.66 199.88, 102.74 161.03, 0.54 72.54 M198.63 239.44 C149.56 197.53, 103.03 157.17, 0.9 67.56 M198.63 239.44 C143.82 191.53, 89.27 143.43, 0.9 67.56 M204.28 239.05 C130.78 176.12, 59.51 114.23, 0.5 61.91 M204.28 239.05 C156.12 197.97, 107.27 155.59, 0.5 61.91 M210.67 239.31 C156.23 190.25, 98.41 143.82, 0.86 56.93 M210.67 239.31 C140.31 175.96, 68.14 114.49, 0.86 56.93 M216.32 238.92 C139.44 174.34, 61.62 106.09, 0.47 51.28 M216.32 238.92 C160.8 191.98, 105.65 143.8, 0.47 51.28 M222.71 239.18 C163.79 188.47, 103.84 136.22, 0.83 46.3 M222.71 239.18 C163.51 186.9, 104.78 135.33, 0.83 46.3 M229.11 239.44 C178.38 196.31, 127.79 153.1, 0.44 40.65 M229.11 239.44 C142.14 162.86, 54.09 86.56, 0.44 40.65 M234.76 239.04 C167.39 183.21, 98.86 123.99, 0.8 35.67 M234.76 239.04 C161.98 178.25, 91.31 116.14, 0.8 35.67 M241.15 239.31 C154.63 164.84, 66.63 88.18, 1.16 30.68 M241.15 239.31 C161.32 172.32, 83.08 102.7, 1.16 30.68 M246.8 238.91 C195.51 194.14, 145.22 150.36, 1.52 25.69 M246.8 238.91 C163.99 167.5, 80.65 96.59, 1.52 25.69 M253.19 239.17 C195.09 192.76, 141.3 143.92, 2.63 21.36 M253.19 239.17 C178.84 176.84, 104.96 112.61, 2.63 21.36 M259.59 239.43 C186.68 173.36, 110.07 108.25, 2.99 16.37 M259.59 239.43 C203.18 190.62, 146.42 140.68, 2.99 16.37 M265.24 239.04 C172.14 156.83, 78.93 76.71, 5.62 13.36 M265.24 239.04 C185.3 168.11, 105.28 98.99, 5.62 13.36 M271.63 239.3 C200.76 179.88, 132.57 118.76, 7.48 9.68 M271.63 239.3 C200.06 178.16, 127.94 115.4, 7.48 9.68 M277.28 238.91 C186.64 158.94, 96.41 80.14, 9.35 6.01 M277.28 238.91 C200.91 171.03, 124.57 103.75, 9.35 6.01 M283.67 239.17 C223.37 187.69, 163.53 135.69, 13.49 4.3 M283.67 239.17 C189.66 156.54, 95.92 74.6, 13.49 4.3 M290.07 239.43 C219.46 177.26, 151.59 116.55, 16.87 1.94 M290.07 239.43 C187.81 148.95, 86.65 61.35, 16.87 1.94 M295.71 239.04 C207.28 161.17, 120.25 85.71, 20.25 -0.43 M295.71 239.04 C190.28 148.11, 85.23 57.78, 20.25 -0.43 M302.11 239.3 C243.39 187.13, 184.72 135.46, 25.13 -1.48 M302.11 239.3 C244.07 188.37, 188.36 139.48, 25.13 -1.48 M307.76 238.9 C228.8 168.06, 149.79 98.55, 32.29 -0.56 M307.76 238.9 C237.92 179.78, 168.58 118.94, 32.29 -0.56 M314.15 239.16 C246.62 183.83, 181.38 126.98, 38.68 -0.3 M314.15 239.16 C250.09 182.59, 186.54 127.35, 38.68 -0.3 M320.55 239.43 C231.67 163.24, 140.49 85.66, 44.33 -0.69 M320.55 239.43 C237.68 165.15, 152.35 92.34, 44.33 -0.69 M326.19 239.03 C223.88 148.73, 124.06 59.86, 50.73 -0.43 M326.19 239.03 C268.28 189.67, 209.27 137.96, 50.73 -0.43 M332.59 239.29 C225.78 145.57, 117.46 53.25, 57.12 -0.17 M332.59 239.29 C266.66 182.65, 202.42 125.53, 57.12 -0.17 M338.24 238.9 C237.17 151.88, 136.7 64.02, 62.77 -0.56 M338.24 238.9 C251.32 164.57, 166.21 90.02, 62.77 -0.56 M344.63 239.16 C260.23 165.82, 174.57 90.53, 69.16 -0.3 M344.63 239.16 C289.2 188.95, 232.25 139.32, 69.16 -0.3 M351.03 239.42 C291.65 189.48, 235.46 141.21, 74.81 -0.7 M351.03 239.42 C295.19 191.1, 238.18 140.76, 74.81 -0.7 M356.67 239.03 C279.82 170.35, 200.53 100.89, 81.2 -0.44 M356.67 239.03 C266.78 162.22, 176.53 85.39, 81.2 -0.44 M363.07 239.29 C258.81 147.45, 155.39 57.72, 87.6 -0.17 M363.07 239.29 C259.97 150.65, 156.08 60.51, 87.6 -0.17 M368.71 238.89 C264.56 148.1, 160.02 57.52, 93.25 -0.57 M368.71 238.89 C269.11 152.23, 167.52 64.71, 93.25 -0.57 M375.11 239.15 C267.01 144.87, 157.54 50.66, 99.64 -0.31 M375.11 239.15 C318.35 188.66, 262.39 140.32, 99.64 -0.31 M381.51 239.42 C319.84 185.47, 259.03 132.66, 105.29 -0.7 M381.51 239.42 C308.65 175.55, 235.6 113.01, 105.29 -0.7 M387.15 239.02 C307.46 173.09, 230.86 104.24, 111.68 -0.44 M387.15 239.02 C305.96 168.06, 224.49 97.22, 111.68 -0.44 M393.55 239.28 C306.97 165.8, 223.09 91.57, 118.08 -0.18 M393.55 239.28 C335.77 190.6, 280.47 141.54, 118.08 -0.18 M399.19 238.89 C321.57 172.34, 243.92 102.53, 123.73 -0.57 M399.19 238.89 C303.97 156.93, 207.48 72.89, 123.73 -0.57 M405.59 239.15 C322 165.65, 235.33 91.9, 130.12 -0.31 M405.59 239.15 C315.43 158.44, 223.32 77.89, 130.12 -0.31 M411.99 239.41 C311.7 153.19, 210.68 65.53, 135.77 -0.71 M411.99 239.41 C334.37 170.6, 256.38 102.17, 135.77 -0.71 M417.63 239.02 C321.59 154.37, 223.26 68.41, 142.16 -0.45 M417.63 239.02 C347.69 176.72, 278.48 116.5, 142.16 -0.45 M424.03 239.28 C343.05 168.11, 261.34 98.01, 148.56 -0.18 M424.03 239.28 C338.61 164.24, 252.06 90.27, 148.56 -0.18 M429.67 238.88 C335.45 158.35, 240.84 76.65, 154.2 -0.58 M429.67 238.88 C338.27 160.55, 248.5 82.3, 154.2 -0.58 M436.07 239.14 C332.02 150.33, 227.5 58.35, 160.6 -0.32 M436.07 239.14 C363.19 175.25, 290 112.09, 160.6 -0.32 M442.47 239.41 C376.21 181.24, 308.09 121.28, 166.25 -0.71 M442.47 239.41 C338.68 151.4, 234.88 60.86, 166.25 -0.71 M448.11 239.01 C358.58 159.25, 270.4 82.26, 172.64 -0.45 M448.11 239.01 C372.09 172.8, 294.52 106.04, 172.64 -0.45 M454.51 239.27 C346.43 148.9, 238.96 55.03, 179.04 -0.19 M454.51 239.27 C351.69 150.75, 248.34 60.63, 179.04 -0.19 M460.15 238.88 C358.96 152.09, 259.14 67.25, 184.68 -0.58 M460.15 238.88 C378.05 168.44, 294.27 95.9, 184.68 -0.58 M466.55 239.14 C362.55 146.51, 258.89 55.1, 191.08 -0.32 M466.55 239.14 C367.91 152.53, 270.14 66.87, 191.08 -0.32 M472.95 239.4 C380.06 158.55, 285.58 75.44, 196.72 -0.72 M472.95 239.4 C370.24 149.33, 265.87 58.48, 196.72 -0.72 M478.59 239.01 C372.37 145.81, 266.06 53.17, 203.12 -0.46 M478.59 239.01 C390.08 163.02, 302.97 86.75, 203.12 -0.46 M484.99 239.27 C420.78 183.25, 356.68 127.29, 209.52 -0.19 M484.99 239.27 C382.96 151.07, 281.73 61.93, 209.52 -0.19 M490.63 238.87 C421.03 180.94, 354.35 121, 215.16 -0.59 M490.63 238.87 C406.18 165.49, 320.13 91.25, 215.16 -0.59 M497.03 239.13 C440.58 188.91, 385.48 141.18, 221.56 -0.33 M497.03 239.13 C429.72 180.27, 362.4 121.6, 221.56 -0.33 M503.43 239.4 C407.5 152.69, 309.35 66.57, 227.2 -0.72 M503.43 239.4 C410.18 159.12, 315.08 76.83, 227.2 -0.72 M509.07 239 C408.04 152.68, 307.36 66.19, 233.6 -0.46 M509.07 239 C406.67 149.63, 303.9 59.39, 233.6 -0.46 M515.47 239.26 C408.83 146.37, 299.53 54.4, 240 -0.2 M515.47 239.26 C440.43 172.49, 363.68 105.23, 240 -0.2 M521.11 238.87 C456.72 183.62, 394.83 130.87, 245.64 -0.59 M521.11 238.87 C453.84 179.39, 385.68 120.37, 245.64 -0.59 M527.51 239.13 C423.61 148.23, 316.55 56.27, 252.04 -0.33 M527.51 239.13 C435.57 158.21, 342.25 77.39, 252.04 -0.33 M533.91 239.39 C471.12 185.74, 410.4 132, 257.68 -0.73 M533.91 239.39 C439.15 155.71, 342.51 72.39, 257.68 -0.73 M539.55 239 C474.27 182.58, 407.89 125.39, 264.08 -0.46 M539.55 239 C481.81 187.58, 424.18 137.1, 264.08 -0.46 M545.95 239.26 C488.93 189.45, 430.35 138.56, 270.48 -0.2 M545.95 239.26 C467.02 173.71, 389.07 106.52, 270.48 -0.2 M551.59 238.86 C487.87 182.34, 421.15 126.01, 276.12 -0.6 M551.59 238.86 C460.47 156.8, 367.96 77.29, 276.12 -0.6 M557.99 239.12 C464.16 155.9, 368.31 74.03, 282.52 -0.34 M557.99 239.12 C491.11 178.8, 421.82 119.37, 282.52 -0.34 M564.39 239.39 C479.55 164.68, 392.84 91.78, 288.16 -0.73 M564.39 239.39 C506.74 189.34, 450.7 140.85, 288.16 -0.73 M570.03 238.99 C507.57 184.89, 447.69 131.37, 294.56 -0.47 M570.03 238.99 C470.49 150.42, 369.36 61.76, 294.56 -0.47 M576.43 239.25 C474.76 153.98, 376.6 67.84, 300.96 -0.21 M576.43 239.25 C499.38 170.7, 422.66 104.8, 300.96 -0.21 M582.07 238.86 C490.02 157.06, 396.12 75.17, 306.6 -0.6 M582.07 238.86 C484.53 154.13, 386.19 70.26, 306.6 -0.6 M588.47 239.12 C488.15 151.2, 387.27 61.72, 313 -0.34 M588.47 239.12 C513.47 175.78, 440.46 112.17, 313 -0.34 M594.87 239.38 C536.48 189.01, 475.23 139.33, 318.64 -0.74 M594.87 239.38 C527.75 180.48, 461.07 122.26, 318.64 -0.74 M600.51 238.99 C527.22 176.13, 454.34 111.59, 325.04 -0.47 M600.51 238.99 C532.19 179.63, 464.98 120.69, 325.04 -0.47 M606.91 239.25 C526.09 170.63, 448.21 100.13, 331.44 -0.21 M606.91 239.25 C532.97 174.24, 459.83 108.64, 331.44 -0.21 M612.55 238.85 C537.96 173.79, 463.89 109.79, 337.08 -0.61 M612.55 238.85 C519.13 159.15, 426.74 79.38, 337.08 -0.61 M618.95 239.12 C561.16 190.24, 502.99 141.95, 343.48 -0.35 M618.95 239.12 C514.06 147.48, 410.33 56.32, 343.48 -0.35 M625.35 239.38 C530.61 154.35, 434.45 72.44, 349.12 -0.74 M625.35 239.38 C562.88 182.94, 498.16 126.91, 349.12 -0.74 M630.99 238.98 C535.82 156.74, 439.22 71.76, 355.52 -0.48 M630.99 238.98 C540.11 161.97, 449.6 84.52, 355.52 -0.48 M637.39 239.24 C542.14 155.92, 448.3 74.47, 361.92 -0.22 M637.39 239.24 C562.71 171.87, 485.98 105.72, 361.92 -0.22 M643.78 239.51 C560.94 166.33, 477.98 94.02, 367.56 -0.61 M643.78 239.51 C541.24 149.81, 439.46 60.44, 367.56 -0.61 M649.43 239.11 C573.74 175.85, 498.69 109.23, 373.96 -0.35 M649.43 239.11 C548.29 151.27, 447.06 63.63, 373.96 -0.35 M655.83 239.37 C554.66 153.56, 455.02 66.02, 379.6 -0.75 M655.83 239.37 C550.02 146.97, 444.55 55.74, 379.6 -0.75 M661.47 238.98 C605.75 191.27, 549.94 142.85, 386 -0.48 M661.47 238.98 C588.09 172.51, 513.58 108.85, 386 -0.48 M667.87 239.24 C595.42 174.73, 521.07 111.73, 392.4 -0.22 M667.87 239.24 C574.67 159.59, 482.8 79.42, 392.4 -0.22 M674.26 239.5 C571.78 150.03, 467.4 59.74, 398.04 -0.62 M674.26 239.5 C589.92 166.25, 508.25 93.4, 398.04 -0.62 M679.91 239.11 C612.65 180.31, 546.51 122.95, 404.44 -0.36 M679.91 239.11 C620.94 186.95, 562.2 134.65, 404.44 -0.36 M686.31 239.37 C599.29 164.58, 514.94 90.84, 410.08 -0.75 M686.31 239.37 C621.35 184.31, 556.47 129.34, 410.08 -0.75 M691.95 238.97 C594.27 155.15, 498.3 70.96, 416.48 -0.49 M691.95 238.97 C606.1 164.54, 519.9 88.8, 416.48 -0.49 M698.35 239.23 C619.02 171.43, 541.95 104.89, 422.88 -0.23 M698.35 239.23 C643.1 191.13, 587.87 143.56, 422.88 -0.23 M703.99 238.84 C604.29 152.12, 504.03 65.76, 428.52 -0.62 M703.99 238.84 C614.76 157.81, 523.55 79.18, 428.52 -0.62 M708.88 237.79 C643.02 182.12, 580.3 126.02, 434.92 -0.36 M708.88 237.79 C599.89 142.18, 489.67 47.71, 434.92 -0.36 M716.03 238.71 C642.12 172.87, 566.22 107.16, 440.56 -0.76 M716.03 238.71 C640.44 172.34, 563.97 106.72, 440.56 -0.76 M720.16 237 C645.09 169.95, 569.26 105.66, 446.96 -0.49 M720.16 237 C618.86 150.31, 516.41 60.83, 446.96 -0.49 M723.54 234.64 C618.33 143.39, 512.6 50.82, 453.36 -0.23 M723.54 234.64 C627.28 149.74, 530.09 64.97, 453.36 -0.23 M726.17 231.62 C620.79 139.18, 515.99 48.35, 459 -0.63 M726.17 231.62 C636.73 155.3, 547.82 78.53, 459 -0.63 M728.79 228.6 C665.75 173.16, 602.8 119.35, 465.4 -0.37 M728.79 228.6 C648.66 155.57, 565.81 84.37, 465.4 -0.37 M731.42 225.58 C645.72 151.84, 560.42 77.81, 471.04 -0.76 M731.42 225.58 C668.49 170.72, 606.79 116.18, 471.04 -0.76 M733.28 221.91 C666.27 166.61, 600.8 108.77, 477.44 -0.5 M733.28 221.91 C666.5 163.11, 600.73 105.12, 477.44 -0.5 M733.64 216.92 C658.5 153.06, 586.56 89.14, 483.84 -0.24 M733.64 216.92 C655.11 148.45, 576.32 79.61, 483.84 -0.24 M734 211.93 C658.42 146.03, 582.79 79.56, 489.48 -0.63 M734 211.93 C674.1 160.06, 614.47 107.96, 489.48 -0.63 M735.12 207.6 C671.22 151.37, 604.14 91.81, 495.88 -0.37 M735.12 207.6 C651.82 134.64, 568.53 63.18, 495.88 -0.37 M734.73 201.96 C646.91 125.92, 559.03 50.26, 501.52 -0.77 M734.73 201.96 C663.92 138.29, 590.99 76.08, 501.52 -0.77 M735.09 196.97 C663.72 135.85, 589.39 72.59, 507.92 -0.5 M735.09 196.97 C650.28 125.93, 565.94 52.04, 507.92 -0.5 M734.69 191.33 C677.74 144.64, 624.07 96.42, 514.32 -0.24 M734.69 191.33 C688.06 149.1, 640.03 108.36, 514.32 -0.24 M735.05 186.34 C683.31 143.62, 631.77 97.73, 519.96 -0.64 M735.05 186.34 C655.97 114.49, 575.06 43.54, 519.96 -0.64 M734.66 180.7 C684.35 139.74, 637.2 95.64, 526.36 -0.38 M734.66 180.7 C668.7 123.6, 602.17 65.94, 526.36 -0.38 M735.02 175.71 C669.04 122.09, 605.29 66.25, 532 -0.77 M735.02 175.71 C688.85 135.23, 643.45 97.27, 532 -0.77 M734.62 170.07 C681.24 125.89, 632.24 80.13, 538.4 -0.51 M734.62 170.07 C677.23 120.82, 620.35 71.79, 538.4 -0.51 M734.98 165.08 C696.73 130.66, 657.33 98.03, 544.8 -0.25 M734.98 165.08 C672.32 113.77, 612.19 59.59, 544.8 -0.25 M734.59 159.44 C663.04 95.93, 593.8 35.94, 550.44 -0.64 M734.59 159.44 C696.52 125.53, 658.01 91.77, 550.44 -0.64 M734.95 154.45 C695.91 120.74, 658 86.55, 556.84 -0.38 M734.95 154.45 C672.62 101.53, 612.78 48.55, 556.84 -0.38 M734.55 148.81 C690.6 111.06, 646.35 74, 562.48 -0.77 M734.55 148.81 C687.75 110.7, 642.51 69.71, 562.48 -0.77 M734.91 143.82 C694.69 108.63, 653.23 74.13, 568.88 -0.51 M734.91 143.82 C683.14 101.03, 632.43 56.66, 568.88 -0.51 M735.27 138.83 C693.07 103.49, 651.11 66.27, 575.27 -0.25 M735.27 138.83 C694.68 104.24, 655.99 69.9, 575.27 -0.25 M734.88 133.19 C698.9 102.05, 666.7 71.27, 580.92 -0.65 M734.88 133.19 C687.9 92.27, 640.03 49.74, 580.92 -0.65 M735.24 128.2 C703.65 103.32, 673.51 78.17, 587.32 -0.38 M735.24 128.2 C697.64 95.08, 660.46 62.18, 587.32 -0.38 M734.84 122.56 C694.53 89.36, 650.49 50.3, 592.96 -0.78 M734.84 122.56 C679.77 75.26, 625.79 27.35, 592.96 -0.78 M735.2 117.57 C683.75 69.37, 629.69 24.37, 599.36 -0.52 M735.2 117.57 C705.15 93.56, 677.08 69.22, 599.36 -0.52 M734.81 111.93 C707.01 86.66, 677.29 63.58, 605.75 -0.26 M734.81 111.93 C704.17 85.34, 673.91 59.32, 605.75 -0.26 M735.17 106.94 C694.03 70.46, 650.23 31.42, 611.4 -0.65 M735.17 106.94 C694.59 73.15, 656.35 39.76, 611.4 -0.65 M734.77 101.3 C691.22 62.03, 648.2 24.81, 617.79 -0.39 M734.77 101.3 C695.66 66.31, 655.93 32.4, 617.79 -0.39 M735.13 96.31 C697.61 63.2, 660.42 29.46, 623.44 -0.78 M735.13 96.31 C692.36 58.24, 646.46 18.08, 623.44 -0.78 M734.74 90.67 C697.97 59.83, 661.57 27.23, 629.84 -0.52 M734.74 90.67 C696.01 56.9, 656.06 23.64, 629.84 -0.52 M735.1 85.68 C715.24 69.19, 692.5 50.32, 636.23 -0.26 M735.1 85.68 C695.22 51.54, 657.56 17.9, 636.23 -0.26 M734.71 80.04 C699.13 51.84, 664.57 22.66, 641.88 -0.66 M734.71 80.04 C712.76 59.42, 690.11 40.25, 641.88 -0.66 M735.07 75.05 C704.43 45.58, 670.36 21.14, 648.27 -0.39 M735.07 75.05 C713.27 57.56, 692.68 37.89, 648.27 -0.39 M734.67 69.41 C713.31 50.09, 694.25 31.51, 654.67 -0.13 M734.67 69.41 C712.64 51.11, 692.78 30.65, 654.67 -0.13 M735.03 64.42 C703.36 38.59, 675.3 14.66, 660.32 -0.53 M735.03 64.42 C704.91 39.18, 675.82 14, 660.32 -0.53 M734.64 58.78 C717.23 44.76, 699.88 28.8, 666.71 -0.27 M734.64 58.78 C711.99 38.37, 688.68 17.77, 666.71 -0.27 M735 53.79 C723.23 40.13, 709.23 28.08, 672.36 -0.66 M735 53.79 C715.98 37.17, 696.42 20.14, 672.36 -0.66 M734.6 48.15 C723.64 37.87, 707.93 24.59, 678.75 -0.4 M734.6 48.15 C723.28 38.08, 712.16 27.15, 678.75 -0.4 M734.96 43.16 C715.12 26.46, 698.03 9.58, 685.15 -0.14 M734.96 43.16 C718.02 28.15, 700.22 13.04, 685.15 -0.14 M734.57 37.52 C723.54 27.95, 713.13 19.15, 690.79 -0.53 M734.57 37.52 C717.29 23.79, 700.81 8.96, 690.79 -0.53 M734.93 32.53 C724.59 23.6, 711.68 12.03, 697.19 -0.27 M734.93 32.53 C724.44 24.66, 714.85 15.28, 697.19 -0.27 M734.53 26.89 C727.06 20.9, 719.26 11.17, 702.84 -0.67 M734.53 26.89 C728.11 20.57, 720.64 15.05, 702.84 -0.67 M734.89 21.9 C726.2 14.14, 721.31 9.15, 709.99 0.25 M734.89 21.9 C724.83 14.26, 717.49 5.77, 709.99 0.25 M729.97 12.32 C727.2 7.74, 722.9 4.9, 716.39 0.51 M729.97 12.32 C726.36 10.18, 724.46 6.33, 716.39 0.51" stroke="#868e96" stroke-width="0.5" fill="none"></path><path d="M32 0 M32 0 C233.55 1.87, 433.67 1.97, 701.71 0 M32 0 C251.29 0.51, 471.65 0.48, 701.71 0 M701.71 0 C724.89 1.26, 735.19 12.04, 733.71 32 M701.71 0 C723.54 0.75, 733.2 8.64, 733.71 32 M733.71 32 C731.37 101.74, 730.56 171.88, 733.71 209.14 M733.71 32 C732.78 91.79, 733.46 152.67, 733.71 209.14 M733.71 209.14 C735.26 232.11, 722.12 243.12, 701.71 241.14 M733.71 209.14 C735.7 228.71, 720.93 240.52, 701.71 241.14 M701.71 241.14 C447.87 239.57, 194.25 240.06, 32 241.14 M701.71 241.14 C499.47 242.22, 297.34 242.65, 32 241.14 M32 241.14 C11.29 240.2, -0.96 229.41, 0 209.14 M32 241.14 C8.64 239.33, -0.59 229.67, 0 209.14 M0 209.14 C-1.07 147.88, 1.85 85.47, 0 32 M0 209.14 C0 152.3, -1.2 95.37, 0 32 M0 32 C-0.12 12.61, 11.88 0.4, 32 0 M0 32 C-0.24 11.23, 10.98 -0.45, 32 0" stroke="#343a40" stroke-width="1" fill="none"></path></g><g stroke-linecap="round" transform="translate(10 15.142854963030913) rotate(0 424.0000534057617 246.9999885559082)"><path d="M32 0 M32 0 C340.72 2.01, 649.65 1.82, 816 0 M32 0 C205.77 -1.45, 380.31 -1.5, 816 0 M816 0 C837.82 0.2, 846.5 11.47, 848 32 M816 0 C837.1 -0.3, 848.91 10.13, 848 32 M848 32 C849.04 188.94, 849.68 345.35, 848 462 M848 32 C848.6 136.07, 849.14 240.24, 848 462 M848 462 C846.38 483.66, 837.38 494.4, 816 494 M848 462 C848.39 483.76, 838.45 494.87, 816 494 M816 494 C524.24 490.85, 233.37 491.48, 32 494 M816 494 C532.99 494.04, 249.25 493.65, 32 494 M32 494 C9.29 494.35, 0.12 485.1, 0 462 M32 494 C11.26 491.86, 1.09 483.19, 0 462 M0 462 C1.39 359.91, 1.7 259.36, 0 32 M0 462 C-1.23 338.15, -1.41 213.67, 0 32 M0 32 C1.17 9.57, 12.49 1.2, 32 0 M0 32 C2.26 12.54, 10.98 0.43, 32 0" stroke="#000000" stroke-width="1" fill="none"></path></g><g stroke-linecap="round" transform="translate(382.0000457763672 237.1427023751403) rotate(0 44.00001525878906 44.463183914991305)"><path d="M54.72 0.68 C62.27 2.04, 70.13 8.61, 75.46 14.53 C80.8 20.45, 85.14 28.61, 86.73 36.22 C88.31 43.82, 87.77 52.78, 84.98 60.17 C82.18 67.56, 76.47 75.69, 69.98 80.54 C63.49 85.39, 54.06 88.75, 46.04 89.27 C38.01 89.79, 28.58 87.75, 21.83 83.66 C15.08 79.57, 9.21 71.97, 5.55 64.74 C1.89 57.51, -0.82 48.32, -0.14 40.26 C0.55 32.21, 4.8 22.64, 9.65 16.43 C14.5 10.21, 21 5.44, 28.96 2.95 C36.92 0.47, 51.98 1.19, 57.41 1.52 C62.84 1.85, 61.7 4.24, 61.52 4.95 M47.85 0.43 C55.52 0.47, 65.02 4.86, 71.46 9.72 C77.89 14.57, 84.12 22.29, 86.45 29.56 C88.79 36.83, 87.5 45.62, 85.49 53.33 C83.48 61.04, 79.69 69.9, 74.4 75.83 C69.1 81.76, 61.31 87.24, 53.7 88.93 C46.1 90.61, 36.06 88.93, 28.75 85.95 C21.44 82.96, 14.61 77.67, 9.82 71.01 C5.03 64.34, 0.89 53.95, 0.01 45.96 C-0.86 37.96, 0.67 29.58, 4.57 23.02 C8.47 16.45, 16.17 10.59, 23.4 6.55 C30.64 2.5, 43.84 -0.31, 47.98 -1.25 C52.12 -2.18, 48.52 0.07, 48.23 0.94" stroke="#000000" stroke-width="1" fill="none"></path></g><g stroke-linecap="round"><g transform="translate(366.4882936023532 219.6148711916012) rotate(0 58.50658307781032 61.783916553109975)"><path d="M0.57 -0.94 C20.03 19.9, 98.15 103.75, 117.61 124.5 M-0.59 1.19 C18.6 21.7, 96.99 102.06, 116.45 122.65" stroke="#000000" stroke-width="1" fill="none"></path></g></g><mask></mask><g stroke-linecap="round" transform="translate(900.8571951729919 10) rotate(0 424.0000534057617 250.42848042079424)"><path d="M32 0 M32 0 C291.32 -1.41, 551.44 -1.43, 816 0 M32 0 C244.13 -1.74, 457.3 -1.05, 816 0 M816 0 C838.01 -1.39, 848.88 11, 848 32 M816 0 C839.42 1.36, 846.73 12.09, 848 32 M848 32 C850.09 137.86, 849.65 243.3, 848 468.86 M848 32 C846.16 131.92, 846.9 232.77, 848 468.86 M848 468.86 C848.56 491.01, 838.24 499.89, 816 500.86 M848 468.86 C847.41 490.12, 836.93 502.02, 816 500.86 M816 500.86 C644.48 502.65, 472.08 502.6, 32 500.86 M816 500.86 C633.77 502.52, 452 502.83, 32 500.86 M32 500.86 C11.18 502.83, 1.4 488.56, 0 468.86 M32 500.86 C10.48 500.47, 1.41 490.87, 0 468.86 M0 468.86 C-0.43 359.86, 0.41 250.04, 0 32 M0 468.86 C1.65 328.44, 1.96 188.86, 0 32 M0 32 C-0.93 11.45, 12.33 -0.88, 32 0 M0 32 C-1.93 12.75, 9.07 0.84, 32 0" stroke="#000000" stroke-width="1" fill="none"></path></g><g stroke-linecap="round" transform="translate(951.1556084042495 112.09122370160048) rotate(0 367.9999796549473 63.04761614118297)"><path d="M7.73 8.05 C7.73 8.05, 7.73 8.05, 7.73 8.05 M7.73 8.05 C7.73 8.05, 7.73 8.05, 7.73 8.05 M3.54 18.97 C7.98 13.48, 9.81 9.7, 17.97 2.37 M3.54 18.97 C8.52 13.58, 11.9 9.56, 17.97 2.37 M2.62 26.13 C6.31 20.77, 10.42 15.25, 24.27 1.22 M2.62 26.13 C8.45 20.55, 12.04 15.63, 24.27 1.22 M1.7 33.28 C12.23 22.58, 20.63 12.26, 29.91 0.83 M1.7 33.28 C9.76 24.07, 15.86 16.73, 29.91 0.83 M2.1 38.92 C8.64 29.59, 17.21 20.48, 34.24 1.94 M2.1 38.92 C9.72 29.05, 17.29 20.28, 34.24 1.94 M1.84 45.32 C12.52 34.08, 21 23.19, 39.23 2.3 M1.84 45.32 C12.1 34.66, 20.23 23.88, 39.23 2.3 M1.57 51.72 C14.73 36.91, 28.66 18.79, 44.87 1.91 M1.57 51.72 C16.69 33.92, 34.21 13.92, 44.87 1.91 M1.97 57.36 C19.85 36.19, 34.91 18.42, 49.86 2.27 M1.97 57.36 C19.97 35.96, 37.5 15.24, 49.86 2.27 M1.71 63.76 C14.15 47.31, 30.54 30.67, 55.5 1.87 M1.71 63.76 C17.86 43.63, 34.48 24.59, 55.5 1.87 M2.1 69.4 C21.9 43.07, 46.63 19.78, 60.49 2.23 M2.1 69.4 C14.23 53.6, 27.84 38.66, 60.49 2.23 M1.84 75.8 C15.01 60.15, 27.6 44.86, 66.13 1.84 M1.84 75.8 C22.58 51.48, 45.11 26.71, 66.13 1.84 M1.58 82.2 C22.71 56.03, 44.08 31.67, 71.12 2.2 M1.58 82.2 C22.71 58.9, 42.45 36.99, 71.12 2.2 M1.97 87.84 C21.65 61.86, 42.65 38.39, 76.11 2.56 M1.97 87.84 C16.67 68.69, 32.88 51.16, 76.11 2.56 M1.06 94.99 C29.46 63.41, 58.72 31.18, 81.75 2.16 M1.06 94.99 C32.6 59.26, 65.13 24.68, 81.75 2.16 M1.45 100.64 C35.8 59.34, 70.06 21.06, 86.74 2.52 M1.45 100.64 C34.56 65.05, 65.38 26.59, 86.74 2.52 M2.5 105.53 C31.73 71.92, 64.3 33.3, 92.38 2.13 M2.5 105.53 C21.02 81.43, 41.48 58.75, 92.38 2.13 M4.21 109.66 C27.85 86.24, 47.35 62.64, 97.37 2.49 M4.21 109.66 C35.21 74.83, 64.88 40.57, 97.37 2.49 M5.91 113.79 C36.12 81.36, 65.83 46.17, 103.01 2.1 M5.91 113.79 C28.96 87.11, 52.07 62.33, 103.01 2.1 M8.28 117.17 C45.45 74.89, 85.46 30.62, 108 2.46 M8.28 117.17 C44.24 76.53, 79.55 35.64, 108 2.46 M10.64 120.55 C41.57 85.05, 71.57 47.39, 113.64 2.06 M10.64 120.55 C46.22 82.19, 80.09 41.37, 113.64 2.06 M13.66 123.17 C44.54 88.5, 72.85 54.64, 118.63 2.42 M13.66 123.17 C48.46 82.89, 81.5 44.38, 118.63 2.42 M17.99 124.29 C60.55 76.26, 103.77 26.4, 124.27 2.03 M17.99 124.29 C61.12 75.01, 101.32 27.46, 124.27 2.03 M22.32 125.4 C52.95 92.2, 84.63 54.31, 129.26 2.39 M22.32 125.4 C47.37 96.37, 72.65 67.15, 129.26 2.39 M26 127.27 C55.68 92.47, 86.71 54.26, 134.9 1.99 M26 127.27 C61.86 87.46, 97.29 47.07, 134.9 1.99 M31.64 126.88 C67.67 83.22, 104.02 39.78, 139.89 2.35 M31.64 126.88 C58.65 97.92, 83.7 68.17, 139.89 2.35 M36.63 127.24 C63.95 94.02, 93.24 61.82, 145.53 1.96 M36.63 127.24 C59.69 101.17, 81.23 73.33, 145.53 1.96 M41.61 127.6 C76.5 86.92, 113.59 46.38, 150.52 2.32 M41.61 127.6 C71.05 93.73, 99.52 58.9, 150.52 2.32 M47.26 127.2 C77.98 91.31, 104.88 58, 156.16 1.92 M47.26 127.2 C90.86 76.22, 134.13 26.52, 156.16 1.92 M52.24 127.56 C87.61 87.02, 122.74 45.88, 161.15 2.28 M52.24 127.56 C75.37 100.88, 97.2 75.19, 161.15 2.28 M57.89 127.17 C82.54 98.69, 109.6 70.12, 166.14 2.64 M57.89 127.17 C97.34 82.27, 138.16 34.98, 166.14 2.64 M62.87 127.53 C103.55 82.66, 145.49 36.42, 171.78 2.25 M62.87 127.53 C94.53 92.36, 124.97 54.98, 171.78 2.25 M68.52 127.14 C102.97 86.64, 136.38 48.74, 176.77 2.61 M68.52 127.14 C100.83 90.61, 132.17 54.91, 176.77 2.61 M73.5 127.5 C105.77 89.03, 133.69 56.37, 182.41 2.21 M73.5 127.5 C106.32 88.82, 138.72 51.22, 182.41 2.21 M79.15 127.1 C109.01 93.33, 138.25 55.6, 187.4 2.57 M79.15 127.1 C108.16 94.91, 137.17 60.64, 187.4 2.57 M84.13 127.46 C106 100.77, 130.99 76.82, 193.04 2.18 M84.13 127.46 C109.35 101.1, 132.27 74.55, 193.04 2.18 M89.78 127.07 C125.21 86.8, 164.77 40.94, 198.03 2.54 M89.78 127.07 C117.87 93.44, 147.25 62, 198.03 2.54 M94.76 127.43 C128.24 89.5, 158.18 52.65, 203.67 2.15 M94.76 127.43 C129.22 88.42, 162.45 48.87, 203.67 2.15 M100.41 127.03 C128.08 89.79, 161.63 56.59, 208.66 2.51 M100.41 127.03 C125.48 101.27, 147.4 72.41, 208.66 2.51 M105.39 127.39 C131.6 95.98, 161.6 65.42, 214.3 2.11 M105.39 127.39 C137.25 90.05, 169.82 53.86, 214.3 2.11 M111.04 127 C151.26 83.78, 189.21 35.95, 219.29 2.47 M111.04 127 C143.3 86.69, 177.81 47.87, 219.29 2.47 M116.02 127.36 C152.84 83.47, 191.42 38.83, 224.93 2.08 M116.02 127.36 C155.52 80.93, 195.5 34.76, 224.93 2.08 M121.67 126.96 C161.86 80.64, 205.52 33.71, 229.92 2.44 M121.67 126.96 C151.79 93.14, 183.49 56.13, 229.92 2.44 M126.65 127.32 C150.05 101.81, 171.81 73.73, 235.56 2.04 M126.65 127.32 C162.09 86.85, 196.39 46.26, 235.56 2.04 M131.64 127.68 C157.8 96.69, 181.79 65.43, 240.55 2.4 M131.64 127.68 C169.94 84.21, 206.19 41.28, 240.55 2.4 M137.28 127.29 C167.24 91.37, 196.84 60.1, 246.19 2.01 M137.28 127.29 C169.02 90.32, 201.4 52.7, 246.19 2.01 M142.27 127.65 C184.82 79.43, 225.11 32.7, 251.18 2.37 M142.27 127.65 C169.13 97.39, 194.02 68.76, 251.18 2.37 M147.91 127.25 C176.75 91.49, 209.54 57.42, 256.82 1.97 M147.91 127.25 C189.91 76.55, 234.35 27.7, 256.82 1.97 M152.9 127.61 C189.41 82.19, 229.5 39.9, 261.81 2.33 M152.9 127.61 C194.81 80.54, 235.8 30.83, 261.81 2.33 M158.54 127.22 C180.37 101.51, 200.92 75.17, 266.79 2.69 M158.54 127.22 C189.04 93.91, 218.44 59.35, 266.79 2.69 M163.53 127.58 C206.83 77.39, 252.03 27.67, 272.44 2.3 M163.53 127.58 C203.26 81.9, 243.78 35.36, 272.44 2.3 M169.17 127.19 C204.43 87.89, 236.42 46.79, 277.42 2.66 M169.17 127.19 C206.88 82.74, 244.01 39.47, 277.42 2.66 M174.16 127.55 C205.39 92.09, 239.81 55.05, 283.07 2.26 M174.16 127.55 C197.46 100.04, 221.26 74.67, 283.07 2.26 M179.8 127.15 C218.56 85.44, 252.08 44.3, 288.05 2.62 M179.8 127.15 C222.03 77.82, 262.28 31, 288.05 2.62 M184.79 127.51 C225.45 83.46, 264.78 37.12, 293.7 2.23 M184.79 127.51 C220.42 88.25, 253.07 50.52, 293.7 2.23 M190.43 127.12 C219.58 96.42, 244.7 64.47, 298.68 2.59 M190.43 127.12 C225.09 85.61, 261.7 43.89, 298.68 2.59 M195.42 127.48 C218.65 100.72, 241.32 77.82, 304.33 2.19 M195.42 127.48 C228.65 87.98, 263.19 49.25, 304.33 2.19 M201.06 127.08 C239.76 85.36, 273 44.28, 309.31 2.55 M201.06 127.08 C227.77 94.12, 256 61.7, 309.31 2.55 M206.05 127.44 C243.25 85.05, 282.78 36.91, 314.96 2.16 M206.05 127.44 C228.74 101.94, 251.14 75.2, 314.96 2.16 M211.69 127.05 C245.3 89.6, 276.4 50.67, 319.94 2.52 M211.69 127.05 C238.82 98.42, 263.33 69.57, 319.94 2.52 M216.68 127.41 C242.2 95.84, 270.85 67.23, 325.59 2.13 M216.68 127.41 C247.68 91.33, 279.42 56.34, 325.59 2.13 M222.32 127.01 C259.47 80.47, 299.52 37.6, 330.57 2.49 M222.32 127.01 C248.53 98.15, 273.84 68.23, 330.57 2.49 M227.31 127.37 C257.1 92.44, 282.17 61.45, 336.22 2.09 M227.31 127.37 C265.85 84.86, 302.3 43.11, 336.22 2.09 M232.3 127.73 C271.21 83.54, 309.3 37.21, 341.2 2.45 M232.3 127.73 C259.67 94.27, 287.73 62.01, 341.2 2.45 M237.94 127.34 C267.58 95.01, 296.4 60.78, 346.85 2.06 M237.94 127.34 C267.81 92.97, 298.96 59.87, 346.85 2.06 M242.93 127.7 C266.41 98.53, 289.66 71.57, 351.83 2.42 M242.93 127.7 C285.74 80.16, 327.66 32.25, 351.83 2.42 M248.57 127.3 C279.59 92.17, 308.54 55.17, 356.82 2.78 M248.57 127.3 C279.93 89.43, 313.71 51.27, 356.82 2.78 M253.56 127.66 C293.76 82.45, 331.4 35.42, 362.46 2.38 M253.56 127.66 C288.22 87.05, 324.52 44.23, 362.46 2.38 M259.2 127.27 C280.8 98.85, 304.45 73.8, 367.45 2.74 M259.2 127.27 C296.25 83.53, 332.32 43.15, 367.45 2.74 M264.19 127.63 C285.72 100.59, 312.85 72.15, 373.09 2.35 M264.19 127.63 C296.36 89.96, 328.63 53.07, 373.09 2.35 M269.83 127.24 C303.9 91.88, 333.25 55.66, 378.08 2.71 M269.83 127.24 C294.82 99.95, 320.03 72.07, 378.08 2.71 M274.82 127.6 C313.67 81.14, 351.84 37.13, 383.72 2.31 M274.82 127.6 C307.68 89.52, 340.14 51.1, 383.72 2.31 M280.46 127.2 C308.15 94.13, 340.09 60.91, 388.71 2.67 M280.46 127.2 C309.77 93.49, 338.39 58.98, 388.71 2.67 M285.45 127.56 C321.32 86.87, 358.61 44.39, 394.35 2.28 M285.45 127.56 C316.62 92.85, 348.59 56.15, 394.35 2.28 M291.09 127.17 C314.84 100.59, 338.94 73.1, 399.34 2.64 M291.09 127.17 C328.94 83.75, 367.28 40.21, 399.34 2.64 M296.08 127.53 C322.44 96.45, 352.68 64.09, 404.98 2.24 M296.08 127.53 C335.95 81.07, 376.98 35.56, 404.98 2.24 M301.72 127.13 C335.61 85.43, 372.36 47.6, 409.97 2.6 M301.72 127.13 C342.26 78.3, 383.45 32.35, 409.97 2.6 M306.71 127.49 C330.08 102.17, 353.8 74.86, 415.61 2.21 M306.71 127.49 C326.8 102.27, 349.58 76.75, 415.61 2.21 M312.35 127.1 C344.55 90.23, 377.54 54.1, 420.6 2.57 M312.35 127.1 C339.68 95.85, 367.59 63.9, 420.6 2.57 M317.34 127.46 C340.96 97.25, 367.32 67.61, 426.24 2.18 M317.34 127.46 C342 98.83, 366.79 69.79, 426.24 2.18 M322.33 127.82 C359.46 86.79, 393.13 47.07, 431.23 2.54 M322.33 127.82 C357.08 89.99, 388.57 52.48, 431.23 2.54 M327.97 127.42 C367.12 80.87, 410.81 34.1, 436.87 2.14 M327.97 127.42 C351.44 101.34, 373.23 73.12, 436.87 2.14 M332.96 127.78 C376.57 78.01, 417.45 30.77, 441.86 2.5 M332.96 127.78 C357.73 97.97, 385.01 67.59, 441.86 2.5 M338.6 127.39 C378.46 81.47, 419.89 35.75, 447.5 2.11 M338.6 127.39 C371.6 86.98, 407.03 48.21, 447.5 2.11 M343.59 127.75 C379.34 88.6, 413.08 48.26, 452.49 2.47 M343.59 127.75 C367.03 103.48, 388.42 76.84, 452.49 2.47 M349.23 127.35 C368.84 100.94, 392.66 77.38, 457.48 2.83 M349.23 127.35 C372.74 102.05, 394.81 74.97, 457.48 2.83 M354.22 127.71 C387.46 92.43, 417.7 54.99, 463.12 2.43 M354.22 127.71 C389.36 85.82, 423.03 46.42, 463.12 2.43 M359.86 127.32 C400.42 78.21, 443.14 32.71, 468.11 2.79 M359.86 127.32 C400.56 80.81, 439.46 33.2, 468.11 2.79 M364.85 127.68 C406.72 77.71, 447.56 30.4, 473.75 2.4 M364.85 127.68 C406.19 81.36, 445.39 35.98, 473.75 2.4 M370.49 127.28 C413.7 75.19, 455.58 26.69, 478.74 2.76 M370.49 127.28 C391.79 101.96, 414.47 77.46, 478.74 2.76 M375.48 127.64 C399.09 98.56, 423 71.03, 484.38 2.36 M375.48 127.64 C404.21 93.76, 432.97 62.15, 484.38 2.36 M381.12 127.25 C409.07 92.01, 441.33 54.78, 489.37 2.72 M381.12 127.25 C413.37 90.74, 444.96 53.69, 489.37 2.72 M386.11 127.61 C417.53 90.17, 452.77 50.9, 495.01 2.33 M386.11 127.61 C406.56 101.84, 430.25 75.97, 495.01 2.33 M391.75 127.22 C422.86 93.2, 454.21 54.78, 500 2.69 M391.75 127.22 C431.08 83.29, 468.85 39.33, 500 2.69 M396.74 127.58 C432.13 87.42, 463.06 48.99, 505.64 2.29 M396.74 127.58 C434.36 87.51, 469.61 44.3, 505.64 2.29 M402.38 127.18 C441.5 83.17, 478.51 36.65, 510.63 2.65 M402.38 127.18 C432.91 93.56, 463.25 57.27, 510.63 2.65 M407.37 127.54 C446.89 85.07, 483.84 38.67, 516.27 2.26 M407.37 127.54 C434.49 95.7, 462.63 64.51, 516.27 2.26 M413.01 127.15 C445.02 92.93, 475.35 56.65, 521.26 2.62 M413.01 127.15 C447.12 87.97, 479.38 50.03, 521.26 2.62 M418 127.51 C456.29 85.65, 493.22 43.27, 526.9 2.23 M418 127.51 C452.48 86.19, 488.58 45.32, 526.9 2.23 M422.98 127.87 C464.24 81.88, 503.86 31.77, 531.89 2.59 M422.98 127.87 C451.77 94.52, 480.43 61.84, 531.89 2.59 M428.63 127.47 C456.66 98.09, 481.47 65.04, 537.53 2.19 M428.63 127.47 C469.12 80.17, 509.45 32.32, 537.53 2.19 M433.61 127.83 C468.51 86.94, 504.84 46.98, 542.52 2.55 M433.61 127.83 C465.62 92.33, 495.65 57.81, 542.52 2.55 M439.26 127.44 C480.41 80.22, 521.66 30.46, 547.51 2.91 M439.26 127.44 C479.72 80.93, 519.17 33.2, 547.51 2.91 M444.24 127.8 C482.27 79.71, 522.02 37.54, 553.15 2.52 M444.24 127.8 C477.89 89.85, 508.92 51.23, 553.15 2.52 M449.89 127.4 C491.42 79.53, 534.31 31.61, 558.14 2.88 M449.89 127.4 C487.99 84.93, 527.62 40.24, 558.14 2.88 M454.87 127.76 C494.63 83.71, 532.94 39.79, 563.78 2.48 M454.87 127.76 C496.94 80.93, 537.33 33.03, 563.78 2.48 M460.52 127.37 C502.92 77.89, 545.28 29.74, 568.77 2.84 M460.52 127.37 C494.35 86.09, 530.57 46.78, 568.77 2.84 M465.5 127.73 C490.66 100.14, 514.86 70.08, 574.41 2.45 M465.5 127.73 C505.4 82.87, 545.77 35.17, 574.41 2.45 M471.15 127.33 C494.79 97.12, 522.19 64.37, 579.4 2.81 M471.15 127.33 C506.59 86.96, 540.14 48.83, 579.4 2.81 M476.13 127.69 C497.54 100.23, 521.8 76.58, 585.04 2.41 M476.13 127.69 C502.14 99.11, 527.64 67.72, 585.04 2.41 M481.78 127.3 C522.62 83.42, 560.79 37.74, 590.03 2.77 M481.78 127.3 C519.99 84.42, 555.88 41.49, 590.03 2.77 M486.76 127.66 C526.59 80.82, 565.87 36.45, 595.67 2.38 M486.76 127.66 C527.59 81.31, 568.8 33.4, 595.67 2.38 M492.41 127.27 C535.76 78.18, 574.25 31.52, 600.66 2.74 M492.41 127.27 C523.3 94.73, 551.93 58.44, 600.66 2.74 M497.39 127.63 C520.1 97.4, 545.73 71.48, 606.3 2.34 M497.39 127.63 C525.02 96.77, 551.28 65.82, 606.3 2.34 M503.04 127.23 C546.08 80.68, 585.01 32.57, 611.29 2.7 M503.04 127.23 C540.54 84.68, 576.92 42.83, 611.29 2.7 M508.02 127.59 C531.43 98.86, 557.97 71.01, 616.93 2.31 M508.02 127.59 C547.63 83.65, 585.33 40.73, 616.93 2.31 M513.01 127.95 C541.17 97.07, 568.01 67.98, 621.92 2.67 M513.01 127.95 C536.39 101.3, 560.1 74.91, 621.92 2.67 M518.65 127.56 C541.9 101.11, 562.66 73.38, 627.56 2.27 M518.65 127.56 C547.94 91.56, 577.8 56.57, 627.56 2.27 M523.64 127.92 C551.63 95.56, 575.49 66.7, 632.55 2.63 M523.64 127.92 C560.77 86.49, 596.15 45.31, 632.55 2.63 M529.28 127.52 C568.33 83.08, 604.71 41.48, 637.53 2.99 M529.28 127.52 C557.69 95.84, 583.34 65.05, 637.53 2.99 M534.27 127.88 C568.68 89.53, 599.78 52.71, 643.18 2.6 M534.27 127.88 C555.05 103.1, 577.79 78.34, 643.18 2.6 M539.91 127.49 C561.77 99.65, 587.54 71.28, 648.16 2.96 M539.91 127.49 C580.47 83.99, 619.3 36.65, 648.16 2.96 M544.9 127.85 C581.18 80.8, 622.04 35.82, 653.81 2.57 M544.9 127.85 C574.95 93.24, 604.68 59.34, 653.81 2.57 M550.54 127.45 C587.83 86.46, 623.01 42.77, 658.79 2.93 M550.54 127.45 C589.09 82.51, 625.8 39.73, 658.79 2.93 M555.53 127.81 C596.35 83.74, 636.13 34.95, 664.44 2.53 M555.53 127.81 C583.16 93.15, 613.15 60.25, 664.44 2.53 M561.18 127.42 C585.81 98.99, 605.42 75.02, 669.42 2.89 M561.18 127.42 C586.83 97.29, 613.42 67.03, 669.42 2.89 M566.16 127.78 C595.15 95.08, 625.04 60.54, 675.07 2.5 M566.16 127.78 C591.95 98.37, 618.54 66.98, 675.07 2.5 M571.81 127.38 C600.48 93.73, 632.83 54.85, 680.05 2.86 M571.81 127.38 C600.68 95.38, 631.45 60.04, 680.05 2.86 M576.79 127.74 C605.2 95.06, 634.54 62.01, 685.7 2.46 M576.79 127.74 C612.71 83.78, 650.12 43.05, 685.7 2.46 M582.44 127.35 C604.79 99.4, 625.73 75.85, 690.68 2.82 M582.44 127.35 C622.95 79.83, 665.39 32.16, 690.68 2.82 M587.42 127.71 C627.09 83.68, 665 42.76, 696.33 2.43 M587.42 127.71 C614.75 98.13, 639.43 68.75, 696.33 2.43 M593.07 127.31 C632.01 82.97, 669.59 37.5, 701.32 2.79 M593.07 127.31 C627.86 85.17, 662.32 45.69, 701.32 2.79 M598.05 127.68 C635.47 84.02, 675.42 42.87, 706.96 2.39 M598.05 127.68 C629.34 94.57, 658.12 59.82, 706.96 2.39 M603.04 128.04 C637.07 90.25, 670.36 51.95, 713.26 1.24 M603.04 128.04 C643.63 82.38, 685.51 34.82, 713.26 1.24 M608.68 127.64 C637.37 95.58, 666.14 59.12, 716.93 3.11 M608.68 127.64 C648.46 81.46, 688.61 36.44, 716.93 3.11 M613.67 128 C652.56 82.8, 693.71 37.78, 721.26 4.23 M613.67 128 C654.02 81.51, 694.69 34.78, 721.26 4.23 M619.31 127.61 C640.73 105.59, 660.88 80.52, 724.94 6.1 M619.31 127.61 C648.99 94.92, 677.37 63.75, 724.94 6.1 M624.3 127.97 C653.24 97.69, 678.64 66.88, 727.96 8.72 M624.3 127.97 C657.84 89.03, 692.64 48.87, 727.96 8.72 M629.94 127.57 C669.98 82.89, 707.56 39.39, 730.98 11.35 M629.94 127.57 C658.5 94.37, 690.49 58.08, 730.98 11.35 M634.93 127.93 C658.6 102.08, 682.77 75.12, 733.99 13.97 M634.93 127.93 C655.71 105.38, 677.02 79.18, 733.99 13.97 M640.57 127.54 C668.28 93.82, 700.23 61.56, 735.05 18.86 M640.57 127.54 C662.38 101.09, 683.11 77.1, 735.05 18.86 M645.56 127.9 C674.92 93.52, 706.62 56.1, 736.1 23.75 M645.56 127.9 C674.16 96.04, 702.09 61.94, 736.1 23.75 M651.2 127.5 C673.49 100.19, 698.12 73.88, 736.49 29.39 M651.2 127.5 C668.71 107.31, 686.3 88.61, 736.49 29.39 M656.19 127.86 C686.53 92.06, 715.66 58.59, 738.2 33.52 M656.19 127.86 C684.29 96.85, 710.67 66.23, 738.2 33.52 M661.83 127.47 C677.03 108.09, 696.04 86.43, 737.94 39.92 M661.83 127.47 C692.81 92.03, 721.58 57.89, 737.94 39.92 M666.82 127.83 C687.61 105.28, 706.34 82.48, 738.33 45.56 M666.82 127.83 C686.78 105.99, 704.64 83.35, 738.33 45.56 M672.46 127.43 C689.9 107.02, 707.19 88.1, 738.07 51.96 M672.46 127.43 C697.25 99.25, 720.91 69.71, 738.07 51.96 M677.45 127.79 C700.58 100.06, 723.61 71.49, 737.81 58.36 M677.45 127.79 C699.75 102.92, 721.55 77.56, 737.81 58.36 M683.09 127.4 C704.07 102.16, 725.4 77.53, 738.2 64 M683.09 127.4 C701.51 105.23, 719.34 84.6, 738.2 64 M688.08 127.76 C698.71 113.67, 709.95 100.92, 737.94 70.4 M688.08 127.76 C705.02 109.19, 719.4 91.57, 737.94 70.4 M693.72 127.36 C707.97 112.84, 721.85 96.1, 737.68 76.8 M693.72 127.36 C703.89 115.24, 715.26 102.53, 737.68 76.8 M698.71 127.72 C707.59 116.62, 718.72 104.38, 738.07 82.44 M698.71 127.72 C708.1 117.23, 719.5 105.23, 738.07 82.44 M705.01 126.58 C713.72 117.08, 725.48 105.8, 737.81 88.84 M705.01 126.58 C715.39 114.79, 726.79 103.12, 737.81 88.84 M711.31 125.43 C719.47 116.42, 728.88 106.98, 737.55 95.24 M711.31 125.43 C717.26 117.4, 723.81 109.76, 737.55 95.24 M716.95 125.03 C723.85 120.66, 727.3 110.96, 736.63 102.39 M716.95 125.03 C724.2 116.41, 731.29 110.05, 736.63 102.39" stroke="#ced4da" stroke-width="0.5" fill="none"></path><path d="M31.52 0 M31.52 0 C285.52 -3.29, 539.59 -2.81, 704.48 0 M31.52 0 C241.08 -0.12, 450.05 0.34, 704.48 0 M704.48 0 C725.83 0.27, 736.21 11.69, 736 31.52 M704.48 0 C727.56 -2.26, 737.05 12.11, 736 31.52 M736 31.52 C738.43 50.94, 735.96 72.96, 736 94.57 M736 31.52 C736.53 54.81, 735.9 78.25, 736 94.57 M736 94.57 C735.32 114.88, 725.98 124.67, 704.48 126.1 M736 94.57 C734.29 115.12, 724.03 126.51, 704.48 126.1 M704.48 126.1 C490.99 128.04, 279.49 127.57, 31.52 126.1 M704.48 126.1 C566.23 126.2, 426.93 126.65, 31.52 126.1 M31.52 126.1 C11.07 124.58, 0.81 115.63, 0 94.57 M31.52 126.1 C8.36 126.51, 0.29 116.88, 0 94.57 M0 94.57 C-1.04 72.42, 1.92 51.4, 0 31.52 M0 94.57 C0.02 78.47, -0.2 63.71, 0 31.52 M0 31.52 C-1.87 8.63, 8.52 1.86, 31.52 0 M0 31.52 C-0.87 11.3, 9 -2.13, 31.52 0" stroke="#343a40" stroke-width="1" fill="none"></path></g><g stroke-linecap="round" transform="translate(1032.4412849062956 124.5675453307158) rotate(0 67.99997965494731 41.999994913737055)"><path d="M4.93 5.61 C4.93 5.61, 4.93 5.61, 4.93 5.61 M4.93 5.61 C4.93 5.61, 4.93 5.61, 4.93 5.61 M0.74 16.54 C5.3 9.57, 10.22 7.05, 13.2 2.2 M0.74 16.54 C3.6 13.45, 6.57 9.45, 13.2 2.2 M0.47 22.94 C6.6 14.46, 13.25 5.72, 18.84 1.81 M0.47 22.94 C6 16.65, 12.96 8.17, 18.84 1.81 M0.87 28.58 C8.32 20.5, 16.38 10.34, 23.83 2.17 M0.87 28.58 C8.08 20.15, 15.76 10.06, 23.83 2.17 M0.61 34.98 C6.24 27.3, 13.5 21.08, 28.82 2.53 M0.61 34.98 C9.66 24.04, 18.21 13.69, 28.82 2.53 M1 40.62 C12.15 27.38, 24.18 14.68, 34.46 2.13 M1 40.62 C8.41 31.56, 18.23 20.85, 34.46 2.13 M0.74 47.02 C8.17 36.52, 20.54 27.47, 39.45 2.49 M0.74 47.02 C11.96 34.25, 22.6 22.4, 39.45 2.49 M0.48 53.42 C15.59 35.24, 34.78 17.59, 45.09 2.1 M0.48 53.42 C13.91 37.34, 28.07 22.09, 45.09 2.1 M0.87 59.06 C16.67 41.99, 31.99 25.91, 50.08 2.46 M0.87 59.06 C18.68 38.38, 37.17 17.64, 50.08 2.46 M0.61 65.46 C24.19 41.01, 42.78 17.74, 55.72 2.06 M0.61 65.46 C17.25 46.53, 33.83 26.61, 55.72 2.06 M2.32 69.59 C25.09 42.51, 49.54 13.95, 60.71 2.42 M2.32 69.59 C23.1 46.48, 41.87 25.18, 60.71 2.42 M4.03 73.73 C25.89 47.93, 46.4 23.65, 66.35 2.03 M4.03 73.73 C18.41 57.88, 32.65 41.05, 66.35 2.03 M5.73 77.86 C23.94 55.66, 43.25 34.46, 71.34 2.39 M5.73 77.86 C30.59 50.02, 56.33 21.46, 71.34 2.39 M8.1 81.24 C34.9 53.06, 60.02 21.64, 76.98 1.99 M8.1 81.24 C23.77 65.84, 38.26 48.03, 76.98 1.99 M12.43 82.35 C37.46 53.65, 63.31 25.26, 81.97 2.35 M12.43 82.35 C28.38 61.4, 46.57 43.19, 81.97 2.35 M16.76 83.47 C40.32 55.95, 60.04 32.3, 87.61 1.96 M16.76 83.47 C42.4 54.4, 66.78 25.81, 87.61 1.96 M21.09 84.58 C35.2 68.41, 50.18 49.8, 92.6 2.32 M21.09 84.58 C46.13 55.78, 70.59 27.52, 92.6 2.32 M26.73 84.19 C46.49 62, 61.75 39.96, 97.59 2.68 M26.73 84.19 C47.68 61.6, 69 37.54, 97.59 2.68 M31.72 84.55 C50.53 64.78, 67.56 45.16, 103.23 2.28 M31.72 84.55 C49.58 63.87, 68.34 42.14, 103.23 2.28 M37.36 84.15 C64.04 51.13, 93.96 18.97, 108.22 2.64 M37.36 84.15 C54.81 62.66, 72.73 41.89, 108.22 2.64 M42.35 84.51 C64.28 58.55, 88.99 30.53, 115.17 0.74 M42.35 84.51 C70.54 51.59, 99.93 18.53, 115.17 0.74 M47.99 84.12 C72.79 55.83, 96.08 29.09, 120.16 1.1 M47.99 84.12 C74.67 52.11, 103.52 19.75, 120.16 1.1 M52.98 84.48 C73.46 60.46, 90.44 38.44, 124.49 2.22 M52.98 84.48 C77.82 55.72, 102.19 28.81, 124.49 2.22 M58.62 84.08 C83.86 53.35, 110.76 23.6, 128.82 3.33 M58.62 84.08 C75.77 64.81, 92.93 44.61, 128.82 3.33 M63.61 84.44 C89.16 52.47, 115.37 22.12, 131.18 6.71 M63.61 84.44 C86.63 57.39, 109.63 30.8, 131.18 6.71 M69.25 84.05 C87.03 64.31, 102.84 45.5, 134.2 9.33 M69.25 84.05 C85.57 62.6, 104.33 42.09, 134.2 9.33 M74.24 84.41 C96.33 60.25, 115.98 38.26, 135.91 13.47 M74.24 84.41 C85.4 69.54, 98.25 56.43, 135.91 13.47 M79.88 84.02 C94.82 64.18, 115.01 44.09, 137.61 17.6 M79.88 84.02 C99.77 60.61, 120.78 38.12, 137.61 17.6 M84.87 84.38 C96.33 69.98, 109.12 54.77, 137.35 24 M84.87 84.38 C103.81 62.31, 122.14 39.88, 137.35 24 M90.51 83.98 C106.87 67.36, 120.88 51.97, 137.75 29.64 M90.51 83.98 C102.39 70.33, 113.74 57.27, 137.75 29.64 M95.5 84.34 C104.65 75.95, 113.16 64.88, 137.49 36.04 M95.5 84.34 C105.24 71.62, 116.95 58.44, 137.49 36.04 M101.14 83.95 C111.26 71.35, 123.38 58.35, 137.88 41.68 M101.14 83.95 C113.52 70.54, 124.58 56.57, 137.88 41.68 M106.13 84.31 C116.43 71.72, 130.62 56.93, 137.62 48.08 M106.13 84.31 C116.79 71.77, 127.45 59.76, 137.62 48.08 M111.12 84.67 C117.95 73.53, 126.47 65.27, 138.01 53.72 M111.12 84.67 C119.32 74.79, 126.38 65.41, 138.01 53.72 M116.1 85.03 C124.74 78.18, 128.59 67.04, 137.75 60.12 M116.1 85.03 C121.84 78.89, 127.57 72.12, 137.75 60.12 M123.06 83.12 C127.59 77.19, 129.27 76.53, 138.8 65.01 M123.06 83.12 C127.7 79.42, 131.16 73.95, 138.8 65.01" stroke="#868e96" stroke-width="0.5" fill="none"></path><path d="M21 0 M21 0 C38.46 -0.01, 59.99 0.85, 115 0 M21 0 C47.44 -0.04, 75.38 0.64, 115 0 M115 0 C130.93 -1.81, 135.14 8.03, 136 21 M115 0 C130.46 -1.83, 135.54 4.77, 136 21 M136 21 C134.64 36.68, 135.09 52.45, 136 63 M136 21 C135.22 30.38, 135.9 39.62, 136 63 M136 63 C135.3 76.64, 128.49 85.97, 115 84 M136 63 C137.32 76.35, 129.16 85.37, 115 84 M115 84 C80.67 84.1, 46.82 81.25, 21 84 M115 84 C95.64 83.41, 75.74 82.86, 21 84 M21 84 C7.03 84.04, -1.13 78.29, 0 63 M21 84 C7.57 84.95, 0.23 76.32, 0 63 M0 63 C-0.04 47.33, -0.95 35.02, 0 21 M0 63 C-0.31 47.15, -1.1 33.79, 0 21 M0 21 C-0.26 5.61, 5.24 0.65, 21 0 M0 21 C-1.66 7.84, 7.27 -0.66, 21 0" stroke="#000000" stroke-width="1" fill="none"></path></g><g stroke-linecap="round"><g transform="translate(1250.1556490943549 144.47219061473197) rotate(0 160.683755435487 0.26849897364877506)"><path d="M0.52 0.73 C54.1 0.82, 268.73 1.2, 322.03 1.05 M-0.66 0.07 C52.77 -0.2, 267.56 -0.68, 321.45 -0.52" stroke="#000000" stroke-width="1" fill="none"></path></g></g><mask></mask><g stroke-linecap="round"><g transform="translate(1229.7746589297312 199.51987796359845) rotate(0 161.05674164405082 0.6128561034964832)"><path d="M0.7 1.05 C54 0.91, 266.8 -0.04, 320.33 -0.16 M-0.4 0.56 C53.22 0.54, 268.89 1.69, 322.51 1.3" stroke="#000000" stroke-width="1" fill="none"></path></g></g><mask></mask><g transform="translate(1377.4889213925326 127.80546291290966) rotate(0 34 17.5)"><text x="0" y="25" font-family="Virgil, Segoe UI Emoji" font-size="28px" fill="#000000" text-anchor="start" style="white-space: pre;" direction="ltr">Title</text></g><g transform="translate(1282.3460090273893 172.8769190954804) rotate(0 161.5 17.5)"><text x="0" y="25" font-family="Virgil, Segoe UI Emoji" font-size="28px" fill="#000000" text-anchor="start" style="white-space: pre;" direction="ltr">show all details button</text></g><g stroke-linecap="round"><g transform="translate(1020.846027555921 221.10305998060676) rotate(0 32.680294206684266 0.03461702447100379)"><path d="M-0.92 0.93 C10.04 1, 55.4 0.97, 66.28 0.81 M0.79 0.37 C11.64 0.08, 54.83 -1.04, 65.82 -0.88" stroke="#343a40" stroke-width="1" fill="none"></path></g></g><mask></mask><g transform="translate(1458.2744583856493 52.60314608377303) rotate(0 33.5 17.5)"><text x="0" y="25" font-family="Virgil, Segoe UI Emoji" font-size="28px" fill="#000000" text-anchor="start" style="white-space: pre;" direction="ltr">date</text></g><g stroke-linecap="round"><g transform="translate(1050.5604266212122 66.05548616439728) rotate(0 137.13762948676685 1.0640876490118671)"><path d="M0.97 -0.94 C46.81 -0.76, 228.54 1.23, 274.25 1.79 M0.02 1.18 C45.77 1.46, 227.46 2.63, 273.29 3.07" stroke="#000000" stroke-width="1" fill="none"></path></g></g><mask></mask><g stroke-linecap="round" transform="translate(977.4175520397384 44.341161213225405) rotate(0 23.428562709264042 22.85714285714289)"><path d="M12.71 1.06 L39.19 -1.21 L46.46 5.01 L44.97 10.57 L45.09 38.95 L40.93 43.33 L33.83 46.64 L9.91 45.87 L0.43 40.48 L-0.03 33.54 L0.18 5.57 L2.56 -0.26 L11.72 1.21" stroke="none" stroke-width="0" fill="#ced4da"></path><path d="M11.43 0 M11.43 0 C19.14 -1.36, 29.23 -0.81, 35.43 0 M11.43 0 C20.69 -0.19, 29.52 -0.21, 35.43 0 M35.43 0 C41.15 0.39, 47.74 4.79, 46.86 11.43 M35.43 0 C43.86 -0.27, 48.42 3.65, 46.86 11.43 M46.86 11.43 C46.41 17.22, 46.85 21.27, 46.86 34.29 M46.86 11.43 C47.42 18.09, 47.18 25.97, 46.86 34.29 M46.86 34.29 C47.72 42.82, 44.43 46.42, 35.43 45.71 M46.86 34.29 C45.38 40.87, 43.28 45.86, 35.43 45.71 M35.43 45.71 C27.98 45.34, 22.48 47.04, 11.43 45.71 M35.43 45.71 C29.14 45.44, 21.89 46.53, 11.43 45.71 M11.43 45.71 C4.72 45.08, -1.52 41.64, 0 34.29 M11.43 45.71 C2.16 47.23, -2 44.09, 0 34.29 M0 34.29 C0.42 24.4, -0.91 15.93, 0 11.43 M0 34.29 C-0.42 27.91, -0.35 23.17, 0 11.43 M0 11.43 C1.92 2.99, 3.22 0.63, 11.43 0 M0 11.43 C1.31 2.77, 1.6 1.02, 11.43 0" stroke="#000000" stroke-width="1" fill="none"></path></g><g transform="translate(996.3461147490034 49.69830407036852) rotate(0 4.5 17.5)"><text x="4.5" y="24" font-family="Virgil, Segoe UI Emoji" font-size="28px" fill="#000000" text-anchor="middle" style="white-space: pre;" direction="ltr">1</text></g><g stroke-linecap="round" transform="translate(1065.4175171625066 195.1983999827562) rotate(0 32 15)"><path d="M5.96 1.55 L61.33 1.82 L61.86 4.18 L61.78 25.97 L63.41 27.58 L57.74 29.4 L3.29 31.19 L-1.36 27.23 L1.74 6.85 L1.9 0.82 L7.2 -1.51" stroke="none" stroke-width="0" fill="#ced4da"></path><path d="M7.5 0 M7.5 0 C20.26 -1.25, 34.19 0.45, 56.5 0 M7.5 0 C19.19 -0.49, 30.98 -0.56, 56.5 0 M56.5 0 C62.21 0.78, 65.74 1.11, 64 7.5 M56.5 0 C60.71 0.84, 62.96 0.73, 64 7.5 M64 7.5 C62.68 11.33, 62.96 16.26, 64 22.5 M64 7.5 C64.12 11.7, 63.75 16.53, 64 22.5 M64 22.5 C65.18 28.06, 61.75 29.24, 56.5 30 M64 22.5 C64.72 26.64, 63.51 29.01, 56.5 30 M56.5 30 C39.74 30.27, 19.36 28.22, 7.5 30 M56.5 30 C44.98 30.32, 34.03 29.25, 7.5 30 M7.5 30 C0.83 31.67, 0.76 26.69, 0 22.5 M7.5 30 C3.75 29.51, 1.58 28.4, 0 22.5 M0 22.5 C1.29 20.27, 0.29 15.85, 0 7.5 M0 22.5 C-0.15 19.1, 0.13 13.99, 0 7.5 M0 7.5 C0.39 2.6, 3.03 0.2, 7.5 0 M0 7.5 C2.24 3.94, 2.65 -1.36, 7.5 0" stroke="#343a40" stroke-width="1" fill="none"></path></g><g transform="translate(1077.9175171625066 200.1983999827562) rotate(0 19.5 10)"><text x="19.5" y="14" font-family="Virgil, Segoe UI Emoji" font-size="16px" fill="#343a40" text-anchor="middle" style="white-space: pre;" direction="ltr">date</text></g></svg>